<svg width="512" height="512" viewBox="0 0 512 512" fill="none" xmlns="http://www.w3.org/2000/svg">
<g clip-path="url(#clip0_483_420)">
<path d="M202.899 -0.517538C204.175 -0.524547 205.45 -0.531557 206.765 -0.538778C210.244 -0.55692 213.723 -0.549983 217.203 -0.537262C220.856 -0.527086 224.509 -0.53654 228.162 -0.542807C234.295 -0.55007 240.428 -0.540531 246.561 -0.521444C253.637 -0.499678 260.712 -0.50673 267.787 -0.52875C273.879 -0.546942 279.97 -0.549444 286.061 -0.538995C289.692 -0.532781 293.322 -0.531867 296.953 -0.545141C301.003 -0.558915 305.052 -0.539788 309.102 -0.517538C310.295 -0.525635 311.488 -0.533732 312.717 -0.542074C320.46 -0.463399 326.081 0.466296 332.024 5.82426C332.693 6.74658 332.693 6.74658 333.375 7.68754C334.068 8.59053 334.068 8.59053 334.774 9.51176C337.841 15.734 338.296 22.5872 338.252 29.4225C338.255 30.2237 338.258 31.0249 338.261 31.8504C338.268 34.522 338.261 37.1933 338.254 39.8648C338.257 41.8048 338.26 43.7448 338.264 45.6848C338.272 51.0059 338.268 56.3269 338.262 61.6479C338.257 67.3903 338.264 73.1327 338.27 78.8751C338.279 90.1206 338.277 101.366 338.271 112.611C338.266 121.751 338.266 130.89 338.268 140.029C338.268 141.33 338.269 142.63 338.269 143.97C338.27 146.612 338.27 149.255 338.271 151.897C338.276 175.967 338.271 200.038 338.26 224.108C338.251 246.075 338.252 268.043 338.261 290.01C338.272 314.698 338.276 339.386 338.27 364.074C338.269 366.706 338.269 369.339 338.268 371.971C338.268 373.914 338.268 373.914 338.267 375.896C338.265 385.024 338.268 394.153 338.273 403.281C338.279 414.406 338.277 425.53 338.266 436.654C338.261 442.33 338.259 448.006 338.266 453.682C338.272 458.878 338.268 464.074 338.258 469.27C338.256 471.15 338.257 473.029 338.262 474.908C338.268 477.465 338.261 480.021 338.252 482.578C338.257 483.305 338.261 484.033 338.266 484.783C338.218 491.481 337.564 498.848 333.375 504.313C332.929 504.927 332.483 505.542 332.024 506.176C325.046 512.467 318.071 512.578 309.102 512.518C307.188 512.528 307.188 512.528 305.236 512.539C301.756 512.557 298.278 512.55 294.798 512.537C291.145 512.527 287.492 512.537 283.839 512.543C277.706 512.55 271.573 512.541 265.44 512.522C258.364 512.5 251.289 512.507 244.213 512.529C238.122 512.547 232.031 512.55 225.94 512.539C222.309 512.533 218.678 512.532 215.048 512.545C210.998 512.559 206.949 512.54 202.899 512.518C201.706 512.526 200.513 512.534 199.284 512.542C191.541 512.464 185.92 511.534 179.977 506.176C179.308 505.253 179.308 505.253 178.625 504.313C177.933 503.41 177.933 503.41 177.227 502.488C174.16 496.266 173.705 489.413 173.749 482.578C173.746 481.776 173.743 480.975 173.74 480.15C173.733 477.478 173.74 474.807 173.746 472.135C173.744 470.195 173.741 468.255 173.737 466.315C173.729 460.994 173.733 455.673 173.739 450.352C173.743 444.61 173.736 438.867 173.731 433.125C173.722 421.88 173.724 410.634 173.73 399.389C173.734 390.249 173.735 381.11 173.733 371.971C173.732 370.67 173.732 369.37 173.732 368.03C173.731 365.388 173.731 362.746 173.73 360.103C173.724 336.033 173.73 311.963 173.741 287.892C173.75 265.925 173.749 243.958 173.74 221.99C173.729 197.302 173.725 172.614 173.731 147.926C173.732 145.294 173.732 142.661 173.733 140.029C173.733 138.734 173.733 137.439 173.734 136.104C173.735 126.976 173.733 117.847 173.728 108.719C173.722 97.5944 173.724 86.4703 173.734 75.3461C173.74 69.6701 173.742 63.9942 173.735 58.3182C173.729 53.1221 173.732 47.926 173.743 42.7299C173.745 40.8505 173.744 38.9711 173.739 37.0916C173.733 34.5352 173.739 31.979 173.749 29.4225C173.744 28.6947 173.739 27.9668 173.735 27.217C173.783 20.5194 174.436 13.1519 178.625 7.68754C179.071 7.07266 179.517 6.45777 179.977 5.82426C186.955 -0.466993 193.93 -0.578413 202.899 -0.517538Z" fill="#FE7058"/>
<path d="M377.785 -0.404297C379.06 -0.41116 380.336 -0.418023 381.65 -0.425095C385.134 -0.442973 388.617 -0.441868 392.101 -0.436152C395.016 -0.433053 397.931 -0.439161 400.846 -0.445191C407.725 -0.459217 414.605 -0.457691 421.485 -0.446289C428.568 -0.434809 435.651 -0.448885 442.734 -0.475686C448.829 -0.497881 454.924 -0.504471 461.02 -0.498609C464.654 -0.495247 468.288 -0.497602 471.922 -0.51486C475.977 -0.533276 480.031 -0.519103 484.086 -0.501953C485.877 -0.516455 485.877 -0.516455 487.705 -0.53125C495.445 -0.462773 501.322 0.363951 507.059 6.03491C507.514 6.70394 507.969 7.37296 508.437 8.06226C508.911 8.73386 509.384 9.40546 509.871 10.0974C512.332 14.2441 512.143 18.2132 512.134 22.8741C512.137 23.689 512.139 24.5038 512.141 25.3434C512.148 28.0974 512.148 30.8513 512.147 33.6053C512.15 35.5903 512.154 37.5754 512.158 39.5604C512.168 45.0337 512.172 50.5071 512.175 55.9804C512.179 61.8763 512.188 67.7721 512.197 73.668C512.216 87.2418 512.226 100.816 512.234 114.389C512.239 121.096 512.244 127.802 512.249 134.509C512.267 157.461 512.282 180.414 512.289 203.367C512.29 204.808 512.29 206.249 512.291 207.69C512.291 208.405 512.291 209.12 512.291 209.856C512.293 213.477 512.294 217.098 512.295 220.719C512.295 221.797 512.295 221.797 512.296 222.897C512.304 246.199 512.327 269.501 512.36 292.803C512.394 317.433 512.414 342.064 512.417 366.695C512.417 369.399 512.418 372.102 512.418 374.806C512.419 375.472 512.419 376.137 512.419 376.823C512.421 386.876 512.434 396.928 512.453 406.981C512.475 418.415 512.483 429.85 512.473 441.284C512.469 447.12 512.471 452.956 512.49 458.792C512.508 464.133 512.507 469.474 512.491 474.815C512.489 476.749 512.493 478.682 512.505 480.616C512.52 483.243 512.511 485.869 512.495 488.496C512.505 489.248 512.515 489.999 512.526 490.773C512.443 497.124 510.476 502.495 505.965 507.058C505.296 507.513 504.627 507.968 503.937 508.437C503.266 508.91 502.594 509.383 501.902 509.871C498.448 511.921 495.609 512.129 491.682 512.147C490.027 512.158 490.027 512.158 488.339 512.169C486.522 512.173 486.522 512.173 484.669 512.177C482.757 512.187 482.757 512.187 480.805 512.197C476.575 512.218 472.344 512.228 468.113 512.238C466.655 512.242 465.197 512.246 463.739 512.25C456.886 512.269 450.034 512.284 443.181 512.292C435.281 512.302 427.38 512.328 419.48 512.369C413.367 512.399 407.255 512.414 401.143 512.417C397.495 512.419 393.848 512.428 390.2 512.453C386.126 512.481 382.052 512.477 377.978 512.47C376.777 512.483 375.576 512.495 374.339 512.509C365.932 512.456 360.505 511.272 354.187 505.375C347.357 496.022 348.577 483.914 348.619 472.946C348.616 470.997 348.611 469.049 348.605 467.1C348.592 461.761 348.598 456.421 348.608 451.081C348.615 445.317 348.604 439.553 348.596 433.789C348.582 422.502 348.585 411.216 348.594 399.93C348.601 390.756 348.602 381.583 348.598 372.41C348.598 371.105 348.598 369.799 348.597 368.454C348.596 365.801 348.595 363.149 348.594 360.496C348.586 336.334 348.594 312.171 348.61 288.009C348.624 265.961 348.623 243.913 348.609 221.865C348.593 197.082 348.586 172.3 348.596 147.517C348.597 144.875 348.598 142.232 348.598 139.589C348.599 138.289 348.599 136.988 348.6 135.649C348.602 126.487 348.598 117.326 348.591 108.164C348.583 96.9984 348.585 85.833 348.601 74.6675C348.609 68.9711 348.612 63.2748 348.602 57.5784C348.593 52.3625 348.598 47.1468 348.614 41.9309C348.617 40.0454 348.616 38.1599 348.608 36.2745C348.526 13.3408 348.526 13.3408 356.109 4.47241C362.791 -0.732012 369.648 -0.43491 377.785 -0.404297Z" fill="#FED15C"/>
<path d="M20.3178 -0.147171C21.421 -0.154326 22.5242 -0.161482 23.6609 -0.168854C24.8718 -0.171543 26.0828 -0.174232 27.3304 -0.177002C28.6055 -0.183573 29.8805 -0.190144 31.1942 -0.196915C35.4249 -0.21794 39.6556 -0.228317 43.8863 -0.238281C45.3445 -0.24233 46.8026 -0.246447 48.2607 -0.250631C55.1133 -0.269681 61.9658 -0.283911 68.8184 -0.292243C76.719 -0.302009 84.6193 -0.328311 92.5198 -0.368744C98.6321 -0.398948 104.744 -0.413716 110.857 -0.417024C114.504 -0.41937 118.152 -0.428273 121.8 -0.453485C125.874 -0.481191 129.947 -0.476922 134.022 -0.469971C135.223 -0.482781 136.423 -0.495591 137.661 -0.508789C146.068 -0.456543 151.494 0.728235 157.812 6.625C164.643 15.978 163.423 28.0856 163.381 39.0542C163.384 41.0026 163.389 42.951 163.395 44.8994C163.407 50.2391 163.401 55.5787 163.392 60.9184C163.385 66.6826 163.395 72.4468 163.404 78.211C163.417 89.4974 163.414 100.784 163.405 112.07C163.399 121.243 163.398 130.416 163.401 139.589C163.401 140.895 163.402 142.201 163.402 143.546C163.403 146.199 163.404 148.851 163.405 151.504C163.414 175.666 163.405 199.828 163.389 223.991C163.375 246.039 163.376 268.087 163.391 290.135C163.407 314.917 163.413 339.7 163.404 364.482C163.403 367.125 163.402 369.768 163.401 372.411C163.401 373.711 163.4 375.011 163.4 376.351C163.397 385.513 163.401 394.674 163.408 403.836C163.417 415.001 163.415 426.167 163.399 437.332C163.391 443.029 163.388 448.725 163.398 454.421C163.407 459.637 163.402 464.853 163.386 470.069C163.382 471.954 163.384 473.84 163.391 475.725C163.473 498.659 163.473 498.659 155.89 507.527C149.209 512.732 142.352 512.435 134.215 512.404C132.301 512.414 132.301 512.414 130.349 512.425C126.866 512.443 123.382 512.442 119.899 512.436C116.984 512.433 114.069 512.439 111.154 512.445C104.274 512.459 97.3944 512.457 90.5145 512.446C83.4315 512.435 76.3489 512.449 69.266 512.475C63.1706 512.498 57.0754 512.504 50.98 512.498C47.3457 512.495 43.7116 512.497 40.0773 512.515C36.0226 512.533 31.9686 512.519 27.9139 512.502C26.7194 512.511 25.5248 512.521 24.2941 512.531C16.5541 512.463 10.6773 511.636 4.941 505.965C4.48596 505.296 4.03092 504.627 3.56209 503.938C3.08901 503.266 2.61592 502.594 2.1285 501.902C-0.332239 497.756 -0.14369 493.787 -0.134628 489.126C-0.136981 488.311 -0.139333 487.496 -0.141756 486.656C-0.148459 483.902 -0.147987 481.148 -0.147577 478.394C-0.150875 476.409 -0.1546 474.424 -0.158718 472.439C-0.168755 466.966 -0.172458 461.493 -0.175108 456.019C-0.179006 450.123 -0.188585 444.228 -0.197321 438.332C-0.216164 424.758 -0.226343 411.184 -0.234781 397.61C-0.238987 390.904 -0.244209 384.198 -0.249466 377.491C-0.267357 354.539 -0.282352 331.586 -0.289785 308.633C-0.29026 307.192 -0.290737 305.751 -0.291214 304.31C-0.29145 303.595 -0.291688 302.88 -0.291931 302.144C-0.293132 298.523 -0.294347 294.902 -0.295572 291.281C-0.295812 290.562 -0.296053 289.843 -0.296301 289.103C-0.304195 265.801 -0.327627 242.499 -0.360128 219.197C-0.394421 194.566 -0.414137 169.935 -0.417431 145.305C-0.417848 142.601 -0.418328 139.897 -0.418854 137.194C-0.419039 136.195 -0.419039 136.195 -0.419228 135.177C-0.421416 125.124 -0.434719 115.071 -0.453892 105.019C-0.475562 93.5842 -0.483667 82.15 -0.473925 70.7156C-0.469369 64.8798 -0.471338 59.0441 -0.490686 53.2082C-0.508242 47.8669 -0.507382 42.5259 -0.491789 37.1845C-0.489401 35.2511 -0.493795 33.3176 -0.505617 31.3843C-0.520688 28.757 -0.511099 26.1308 -0.495392 23.5036C-0.505614 22.7522 -0.515835 22.0007 -0.526367 21.2265C-0.443446 14.8755 1.52306 9.50506 6.03475 4.94141C6.70377 4.48637 7.3728 4.03133 8.06209 3.5625C8.7337 3.08941 9.4053 2.61633 10.0972 2.12891C13.5517 0.0789397 16.3905 -0.129694 20.3178 -0.147171Z" fill="#84DBFE"/>
<path d="M371 21C410.6 21 450.2 21 491 21C491 82.71 491 144.42 491 208C451.4 208 411.8 208 371 208C371 146.29 371 84.58 371 21Z" fill="#F8B64C"/>
<path d="M196 21C235.6 21 275.2 21 316 21C316 82.71 316 144.42 316 208C276.4 208 236.8 208 196 208C196 146.29 196 84.58 196 21Z" fill="#F1543F"/>
<path d="M21 21C60.6 21 100.2 21 141 21C141 82.71 141 144.42 141 208C101.4 208 61.8 208 21 208C21 146.29 21 84.58 21 21Z" fill="#F0F1F2"/>
<path d="M271.762 380.68C279.41 385.192 284.719 390.18 289 398C289.34 398.591 289.68 399.181 290.031 399.789C293.444 406.963 293.278 417.26 291.238 424.824C290.298 427.013 289.26 428.982 288 431C287.36 432.073 286.721 433.145 286.062 434.25C280.637 441.484 273.105 448.196 264 450C255.045 450.765 246.863 450.911 239 446C237.927 445.361 236.855 444.721 235.75 444.063C228.502 438.627 221.828 431.112 220 422C218.808 409.783 220.293 399.539 228.187 389.625C239.159 378.127 257.12 373.642 271.762 380.68Z" fill="#415A6C"/>
<path d="M448.484 381.523C455.577 385.687 459.937 390.872 464 398C464.343 398.592 464.685 399.183 465.039 399.793C468.344 406.789 468.651 416.626 466.38 424.016C463.743 430.675 460.264 436.097 455 441C453.948 441.99 453.948 441.99 452.875 443C443.283 449.673 434.432 451.244 423 450C413.179 447.774 405.529 441.751 400.062 433.437C394.738 424.765 393.815 415.981 395 406C397.63 395.688 403.127 388.187 412.125 382.625C423.519 376.109 436.616 375.719 448.484 381.523Z" fill="#415A6C"/>
<path d="M103.305 384.539C110.154 389.992 114.723 397.585 117 406C118.094 418.156 116.648 428.362 108.828 438.117C100.869 446.314 92.346 450.237 81.0627 450.437C74.5918 450.404 69.5151 449.444 64.0002 446C62.9277 445.361 61.8552 444.721 60.7502 444.062C53.0083 438.256 48.3475 431.011 45.0002 422C43.6061 410.812 45.1459 401.478 51.3517 391.918C55.0505 387.176 59.8146 383.955 65.0002 381C65.5918 380.657 66.1835 380.314 66.7931 379.961C78.4965 374.432 93.0585 377.697 103.305 384.539Z" fill="#415A6C"/>
<path d="M108.621 374.246C119.545 382.3 126.424 392.389 128.625 405.813C128.766 407.207 128.891 408.603 129 410C129.066 410.739 129.131 411.477 129.199 412.238C129.792 424.722 125.096 436.669 117.188 446.18C107.215 456.835 94.725 461.722 80.3125 462.25C66.7241 462.044 55.9228 456.357 46.1055 447.27C42.3783 443.252 39.6154 438.797 37 434C36.6494 433.367 36.2988 432.734 35.9375 432.082C31.5932 422.621 31.9019 408.71 35 399C39.804 386.584 47.6268 377.76 59 371C59.99 370.34 60.98 369.68 62 369C77.7616 362.718 94.5393 365.227 108.621 374.246ZM54 389C51.7444 391.876 49.8091 394.826 48 398C47.6571 398.592 47.3142 399.183 46.9609 399.793C43.6558 406.789 43.3482 416.626 45.6196 424.016C50.3365 435.926 58.4014 443.832 70 449C77.0902 451.363 87.2229 451.264 94.125 448.25C95.4382 447.538 96.7331 446.791 98 446C99.0725 445.361 100.145 444.721 101.25 444.063C108.717 438.462 114.571 431.104 117 422C118.24 409.753 116.678 399.503 108.812 389.625C102.578 383.091 94.3499 378.542 85.3359 377.629C73.3127 377.427 62.354 379.532 54 389Z" fill="#EFF0F1"/>
<path d="M461 376C467.148 381.094 471.343 386.938 475 394C475.495 394.916 475.495 394.916 476 395.851C480.703 406.118 479.883 419.916 476.183 430.289C471.099 442.669 462.887 452.353 450.594 457.969C438.037 462.961 425.821 463.683 413 459C400.123 452.946 390.725 444.065 385.742 430.601C381.712 417.611 381.603 404.337 388 392C394.338 381.092 402.876 372.111 415.035 367.965C431.726 363.604 446.982 365.771 461 376ZM410 384C408.971 384.684 408.971 384.684 407.922 385.383C401.345 390.386 397.126 398.118 395 406C393.906 418.156 395.352 428.362 403.172 438.117C410.953 446.131 419.565 450.236 430.625 450.625C440.308 450.673 448.681 447.063 455.769 440.394C456.505 439.604 457.241 438.814 458 438C458.66 437.299 459.32 436.597 460 435.875C466.644 426.324 468.4 417.401 467 406C464.135 395.294 458.6 388.055 449.258 382.289C436.553 375.035 422.056 375.875 410 384Z" fill="#F0F0EE"/>
<path d="M285 375C294.695 382.696 302.028 393.802 303.848 406.254C304.642 420.568 302.447 433.744 292.875 445.008C282.481 456.052 270.408 461.715 255.25 462.25C241.118 462.033 230.373 455.882 220.262 446.422C210.243 435.694 208.043 423.17 208 409C208.644 396.694 215.511 385.28 224.406 377.121C242.315 362.476 265.995 362.213 285 375ZM229 389C226.657 391.844 224.768 394.771 223 398C222.66 398.59 222.319 399.181 221.969 399.789C218.556 406.963 218.722 417.26 220.762 424.824C221.702 427.013 222.74 428.981 224 431C224.639 432.073 225.279 433.145 225.938 434.25C231.53 441.706 238.9 447.592 248 450C250.657 450.237 253.16 450.381 255.812 450.375C256.518 450.373 257.224 450.372 257.951 450.37C263.797 450.233 268.078 449.073 273 446C274.073 445.361 275.145 444.721 276.25 444.063C283.498 438.627 290.172 431.112 292 422C293.192 409.783 291.706 399.539 283.812 389.625C277.571 383.084 269.308 378.477 260.266 377.664C247.63 377.378 238.243 380.005 229 389Z" fill="#F0EFEF"/>
<path d="M383 101C414.68 101 446.36 101 479 101C479 109.91 479 118.82 479 128C447.32 128 415.64 128 383 128C383 119.09 383 110.18 383 101Z" fill="#F2F1EF"/>
<path d="M208 101C239.68 101 271.36 101 304 101C304 109.91 304 118.82 304 128C272.32 128 240.64 128 208 128C208 119.09 208 110.18 208 101Z" fill="#F1F0EF"/>
<path d="M33 101C64.68 101 96.36 101 129 101C129 109.91 129 118.82 129 128C97.32 128 65.64 128 33 128C33 119.09 33 110.18 33 101Z" fill="#CDD6E0"/>
<path d="M383 47C414.68 47 446.36 47 479 47C479 55.91 479 64.82 479 74C447.32 74 415.64 74 383 74C383 65.09 383 56.18 383 47Z" fill="#F2F1EF"/>
<path d="M208 47C239.68 47 271.36 47 304 47C304 55.91 304 64.82 304 74C272.32 74 240.64 74 208 74C208 65.09 208 56.18 208 47Z" fill="#F2EFEF"/>
<path d="M33 47C64.68 47 96.36 47 129 47C129 55.91 129 64.82 129 74C97.32 74 65.64 74 33 74C33 65.09 33 56.18 33 47Z" fill="#CDD6E0"/>
<path d="M383 156C405.11 156 427.22 156 450 156C450 164.58 450 173.16 450 182C427.89 182 405.78 182 383 182C383 173.42 383 164.84 383 156Z" fill="#F2F2F2"/>
<path d="M208 156C230.11 156 252.22 156 275 156C275 164.58 275 173.16 275 182C252.89 182 230.78 182 208 182C208 173.42 208 164.84 208 156Z" fill="#F2F2F2"/>
<path d="M33 156C55.11 156 77.22 156 100 156C100 164.58 100 173.16 100 182C77.89 182 55.78 182 33 182C33 173.42 33 164.84 33 156Z" fill="#CDD6E0"/>
</g>
<defs>
<clipPath id="clip0_483_420">
<rect width="512" height="512" fill="white"/>
</clipPath>
</defs>
</svg>
