<svg width="512" height="402" viewBox="0 0 512 402" fill="none" xmlns="http://www.w3.org/2000/svg">
<path d="M462 2.15695C452.267 7.22362 447.467 15.8903 448.267 26.8236L448.667 33.6236L414.133 60.8236C386.533 82.6903 379.067 87.8903 376.8 87.2236C370.933 85.357 360.133 84.957 355.6 86.4236C349.2 88.557 341.733 97.0903 340.667 103.49C340.133 106.29 339.6 109.09 339.333 109.89C339.2 110.557 324.667 119.49 307.2 129.49C275.6 147.757 275.467 147.89 272.667 145.224C268.933 141.757 260.933 138.557 256 138.557C251.333 138.557 243.2 141.624 239.867 144.69C237.867 146.557 234.667 145.09 204.8 128.557L172 110.424V105.757C172 98.957 167.467 91.0903 161.067 86.957C156.533 83.8903 154 83.2236 147.333 83.2236C140.667 83.2236 138.133 83.8903 133.6 86.957C127.067 91.2236 122.667 99.0903 122.667 106.29V111.357L90 128.824L57.2 146.29L51.6 143.09C40.1333 136.557 24.8 140.024 17.7333 150.824C14.6667 155.357 14 157.89 14 164.557C14 171.224 14.6667 173.757 17.7333 178.29C22.2667 185.357 29.7333 189.224 38.6667 189.224C52 189.224 62.4 179.89 63.7333 166.824L64.2667 160.557L96.4 143.49L128.667 126.424L135.6 130.024C144.4 134.424 153.333 134.024 161.067 128.824L166.267 125.49L198.133 143.09L230 160.69L230.933 166.157C232.667 176.557 237.867 183.357 246.933 187.224C261.6 193.224 277.467 184.024 281.067 167.357C282 162.824 283.467 161.757 313.333 144.557C338 130.29 345.067 126.69 346.667 127.757C354.667 133.624 357.067 134.557 363.733 134.557C372.133 134.557 378 132.29 382.933 127.09C387.867 121.757 389.6 116.557 389.2 108.157L388.8 101.09L423.467 73.757C452.933 50.4236 458.533 46.6903 461.333 47.357C463.2 47.757 468.133 48.4236 472.4 48.8236C487.2 50.0236 498 39.757 498 24.4236C498 14.557 493.467 6.69029 485.333 2.55696C478.933 -0.643051 467.733 -0.909714 462 2.15695ZM480 18.557C485.467 24.0236 481.333 33.2236 473.333 33.2236C465.6 33.2236 461.6 25.2236 466.133 18.8236C468.8 14.957 476.267 14.8236 480 18.557ZM153.333 101.224C158.8 106.69 154.933 117.224 147.333 117.224C145.467 117.224 142.8 116.024 141.333 114.557C135.867 109.09 139.733 98.557 147.333 98.557C149.2 98.557 151.867 99.757 153.333 101.224ZM370.933 103.49C373.867 106.157 374 112.824 371.067 116.157C368.4 119.09 361.733 119.224 358.4 116.29C355.467 113.624 355.333 106.957 358.267 103.624C360.933 100.69 367.6 100.557 370.933 103.49ZM262 157.89C266.133 161.89 266.267 166.157 262.4 170.157C258.8 174.024 253.733 174.024 249.733 170.29C245.733 166.557 245.867 161.89 250 157.89C254.133 153.624 257.867 153.624 262 157.89ZM45.8667 158.824C50.5333 165.357 46.8 173.224 39.2 173.224C33.7333 173.224 29.3333 169.357 29.3333 164.557C29.3333 156.69 41.4667 152.557 45.8667 158.824Z" fill="black"/>
<path d="M436.933 114.29C434.8 116.556 434.666 128.29 434.666 256.29C434.666 410.157 434 398.957 443.066 400.557C445.466 401.09 460.666 401.223 476.8 400.957C503.733 400.557 506.666 400.29 509.2 398.023L512 395.49V255.89C512 122.29 511.866 116.156 509.6 114.156C507.466 112.156 502.933 111.89 473.066 111.89C441.866 111.89 438.933 112.023 436.933 114.29ZM496 256.557V385.223H473.333H450.666V256.557V127.89H473.333H496V256.557Z" fill="black"/>
<path d="M111.867 197.09L108.667 199.623V297.757C108.667 390.157 108.8 395.89 111.067 398.157C113.2 400.29 116.534 400.557 147.334 400.557C178.134 400.557 181.467 400.29 183.6 398.157C185.867 395.89 186 390.157 186 297.757V199.623L182.8 197.09C180 194.69 177.2 194.557 147.334 194.557C117.467 194.557 114.667 194.69 111.867 197.09ZM170 297.89V384.557H147.334H124.667L124.267 299.223C124.134 252.29 124.267 213.09 124.667 212.157C125.067 210.823 130.534 210.557 147.6 210.823L170 211.223V297.89Z" fill="black"/>
<path d="M328.533 199.09C326.133 200.957 326 203.49 326 298.423C326 390.157 326.133 395.89 328.4 398.157C330.533 400.29 333.867 400.557 364.667 400.557C395.467 400.557 398.8 400.29 400.933 398.157C403.2 395.89 403.333 390.023 403.733 302.823C404 251.757 403.733 208.023 403.333 205.623C401.867 197.223 401.867 197.223 364.8 197.223C337.867 197.223 330.667 197.623 328.533 199.09ZM387.733 298.823L387.333 384.557H364.667H342L341.6 298.823L341.333 213.223H364.667H388L387.733 298.823Z" fill="black"/>
<path d="M222.666 251.49C217.333 253.357 217.333 254.023 217.333 325.89C217.333 394.957 217.333 395.49 220.133 398.023C222.8 400.423 225.333 400.557 256 400.557C286.666 400.557 289.2 400.423 291.866 398.023C294.666 395.49 294.666 394.957 294.666 326.023C294.666 287.757 294.133 255.89 293.6 255.09C290.933 251.09 286.266 250.557 255.733 250.69C238.666 250.69 223.733 251.09 222.666 251.49ZM278.666 325.89V385.223H256H233.333V325.89V266.557H256H278.666V325.89Z" fill="black"/>
<path d="M2.26667 254.29C0.266667 256.557 0 263.49 0 326.157C0 394.957 0 395.49 2.8 398.023C5.33333 400.29 8.26667 400.557 35.2 400.957C51.3333 401.223 66.5333 401.09 68.9333 400.557C77.7333 398.957 77.3333 402.823 77.3333 326.023C77.3333 260.157 77.2 256.157 74.9333 254.157C72.8 252.157 68.2667 251.89 38.4 251.89C7.2 251.89 4.26667 252.023 2.26667 254.29ZM61.3333 326.557V385.223H38.6667H16V326.557V267.89H38.6667H61.3333V326.557Z" fill="black"/>
</svg>
