<svg width="512" height="512" viewBox="0 0 512 512" fill="none" xmlns="http://www.w3.org/2000/svg">
<path d="M96.8664 40.7425C98.0223 40.7361 99.1782 40.7296 100.369 40.723C101.63 40.7261 102.89 40.7292 104.189 40.7323C105.549 40.7286 106.908 40.724 108.268 40.7186C112 40.7064 115.732 40.7066 119.463 40.709C123.49 40.7094 127.517 40.6984 131.543 40.6889C139.43 40.6723 147.317 40.6668 155.204 40.6657C161.616 40.6647 168.027 40.6606 174.438 40.6543C192.619 40.6367 210.799 40.6274 228.979 40.6289C229.959 40.629 230.939 40.6291 231.949 40.6292C233.421 40.6293 233.421 40.6293 234.922 40.6294C250.823 40.6302 266.725 40.6111 282.626 40.5829C298.956 40.5542 315.286 40.5403 331.616 40.5421C340.783 40.5427 349.95 40.5372 359.117 40.5157C366.922 40.4975 374.726 40.4932 382.531 40.5067C386.512 40.5133 390.493 40.5134 394.474 40.496C398.121 40.4803 401.768 40.4832 405.416 40.5006C407.353 40.5051 409.291 40.49 411.229 40.4741C420.054 40.5439 425.963 42.2831 433.25 47.1873C439.562 53.6435 441.754 60.4764 442.613 69.2982C442.726 70.2906 442.839 71.283 442.955 72.3055C443.196 74.4378 443.428 76.571 443.652 78.705C443.998 81.9865 444.371 85.264 444.752 88.5417C445.588 95.7665 446.388 102.995 447.186 110.224C447.491 112.979 447.797 115.733 448.103 118.487C449.012 126.667 449.915 134.848 450.818 143.028C451.074 145.346 451.33 147.665 451.586 149.983C453.184 164.452 454.78 178.922 456.372 193.393C456.738 196.723 457.104 200.052 457.47 203.382C457.561 204.209 457.652 205.037 457.746 205.889C459.222 219.301 460.708 232.711 462.198 246.121C463.735 259.958 465.263 273.796 466.782 287.635C467.631 295.377 468.485 303.12 469.35 310.861C470.086 317.447 470.813 324.035 471.529 330.624C471.894 333.974 472.263 337.322 472.641 340.67C475.115 362.614 475.641 383.972 473.793 405.969C473.665 407.556 473.537 409.143 473.411 410.73C473.147 414 472.876 417.27 472.601 420.539C472.25 424.713 471.919 428.887 471.593 433.062C471.336 436.316 471.068 439.569 470.797 442.822C470.67 444.362 470.547 445.903 470.428 447.443C470.26 449.586 470.078 451.728 469.891 453.869C469.791 455.081 469.691 456.293 469.588 457.541C468.768 462.359 467.59 466.648 463.753 469.908C458.618 471.944 453.155 471.518 447.707 471.501C445.571 471.5 443.438 471.541 441.302 471.586C429.898 471.685 429.898 471.685 426.089 468.594C424 466 424 466 423 464C422.601 464.421 422.203 464.843 421.793 465.277C421.263 465.825 420.733 466.373 420.187 466.937C419.665 467.483 419.143 468.028 418.605 468.59C415.74 471.106 412.944 471.126 409.306 471.134C407.85 471.141 407.85 471.141 406.364 471.147C405.295 471.147 404.226 471.147 403.125 471.147C401.425 471.152 401.425 471.152 399.69 471.158C395.872 471.169 392.053 471.173 388.235 471.177C385.505 471.182 382.775 471.19 380.046 471.197C371.841 471.216 363.636 471.227 355.431 471.235C351.568 471.24 347.705 471.245 343.842 471.25C331.003 471.267 318.163 471.282 305.324 471.289C301.992 471.291 298.66 471.293 295.328 471.295C294.5 471.295 293.672 471.296 292.819 471.296C279.399 471.305 265.978 471.33 252.558 471.363C238.783 471.396 225.008 471.414 211.233 471.417C203.498 471.419 195.762 471.428 188.027 471.453C181.44 471.475 174.854 471.483 168.267 471.473C164.906 471.469 161.546 471.473 158.185 471.49C154.541 471.508 150.898 471.501 147.255 471.488C146.193 471.498 145.131 471.509 144.036 471.521C136.693 471.456 133.239 470.239 128 465C127.731 465.618 127.463 466.237 127.187 466.875C126 469 126 469 123 471C119.901 471.267 119.901 471.267 116.037 471.29C115.333 471.297 114.628 471.304 113.903 471.311C111.573 471.33 109.243 471.334 106.914 471.336C105.293 471.342 103.673 471.349 102.052 471.356C98.6545 471.368 95.2568 471.372 91.8589 471.37C87.5086 471.37 83.159 471.397 78.8088 471.432C75.4613 471.454 72.114 471.458 68.7664 471.457C67.1628 471.46 65.5593 471.468 63.9558 471.484C61.7103 471.503 59.4662 471.498 57.2207 471.486C55.3057 471.49 55.3057 471.49 53.352 471.494C49.327 470.901 47.713 470.017 44.9995 467C44.1268 464.084 44.1268 464.084 43.7813 460.705C43.6432 459.457 43.5051 458.208 43.3629 456.922C43.243 455.628 43.1231 454.333 42.9995 453C42.8701 451.781 42.7407 450.563 42.6074 449.307C42.2064 445.446 41.8429 441.581 41.4917 437.715C41.3601 436.283 41.2284 434.851 41.0967 433.419C40.8235 430.437 40.5534 427.454 40.2852 424.472C39.9467 420.716 39.5963 416.961 39.2428 413.206C38.9669 410.253 38.6998 407.298 38.4347 404.343C38.2501 402.307 38.0567 400.271 37.863 398.235C36.0569 377.665 37.4521 357.733 39.7455 337.247C40.1526 333.587 40.5464 329.927 40.942 326.266C41.7155 319.128 42.5011 311.991 43.2912 304.855C43.9332 299.054 44.5705 293.253 45.2047 287.451C45.2954 286.621 45.3862 285.791 45.4796 284.936C45.664 283.249 45.8483 281.563 46.0326 279.876C47.7545 264.124 49.49 248.374 51.2305 232.624C52.7219 219.126 54.2021 205.627 55.6741 192.126C57.388 176.407 59.1083 160.689 60.8392 144.971C61.0238 143.295 61.2083 141.619 61.3929 139.943C61.4837 139.118 61.5745 138.294 61.668 137.444C62.3059 131.648 62.9392 125.851 63.5709 120.053C64.3403 112.993 65.1169 105.933 65.9026 98.8744C66.3029 95.2768 66.7 91.6789 67.0885 88.08C67.5102 84.1747 67.9473 80.2713 68.386 76.3679C68.5056 75.2372 68.6253 74.1066 68.7486 72.9417C69.9029 62.8853 71.9708 54.5416 78.9995 46.9998C84.518 42.631 89.8481 40.7524 96.8664 40.7425Z" fill="#4C5C75"/>
<path d="M324.062 63.4337C325.422 63.4285 326.781 63.4222 328.14 63.4149C330.978 63.4046 333.815 63.409 336.653 63.4237C340.271 63.4409 343.888 63.4174 347.506 63.3822C350.309 63.3602 353.113 63.3617 355.917 63.37C357.893 63.3712 359.869 63.3514 361.846 63.3311C370.188 63.4171 375.495 64.5942 381.511 70.4781C386.422 75.9586 387.326 81.2183 387.746 88.3556C387.829 89.607 387.829 89.607 387.914 90.8838C388.096 93.6513 388.267 96.4194 388.437 99.1876C388.563 101.131 388.69 103.074 388.818 105.018C389.523 115.88 390.164 126.746 390.789 137.613C390.854 138.734 390.919 139.855 390.986 141.01C391.303 146.472 391.613 151.933 391.91 157.395C392.948 180.016 392.948 180.016 404.437 198.875C420.29 216.574 428.635 240.491 428.25 264.074C426.307 294.579 410.377 320.081 388 340C362.53 361.555 331.277 371.934 299 378C298.285 378.137 297.57 378.274 296.833 378.416C249.15 387.176 196.742 374.188 156.879 347.325C151.592 343.598 146.752 339.38 142 335C141.043 334.126 140.087 333.252 139.101 332.352C121.68 315.711 108.393 292.727 107.726 268.176C107.081 237.545 116.216 213.248 137.21 190.743C142.95 184.817 149.3 179.791 156 175C156.543 174.609 157.086 174.217 157.646 173.814C176.103 160.723 197.037 153.732 218.24 146.472C230.749 142.182 243.076 137.758 255 132C255.763 131.638 256.526 131.275 257.313 130.902C272.272 123.713 285.387 114.663 291.25 98.3751C292.524 94.2297 293.347 90.1289 294.033 85.859C295.157 78.9251 296.211 72.5947 302 68.0001C309.239 63.3979 315.623 63.4013 324.062 63.4337Z" fill="#C8CDE1"/>
<path d="M36.9998 379C37.3298 379 37.6598 379 37.9998 379C38.1467 379.641 38.2937 380.281 38.4451 380.941C40.3267 388.198 42.7659 393.001 48.9518 397.383C56.7871 401.834 64.4967 401.702 73.2446 401.635C74.8878 401.641 76.531 401.649 78.1741 401.659C82.6703 401.679 87.1658 401.669 91.6619 401.654C96.5182 401.642 101.374 401.66 106.231 401.674C115.736 401.696 125.242 401.691 134.748 401.676C142.474 401.665 150.201 401.664 157.928 401.669C159.028 401.67 160.128 401.671 161.262 401.671C163.497 401.673 165.733 401.675 167.968 401.676C188.922 401.691 209.876 401.674 230.831 401.647C248.804 401.625 266.777 401.629 284.751 401.652C305.631 401.679 326.511 401.689 347.39 401.674C349.618 401.672 351.845 401.671 354.072 401.669C355.168 401.668 356.263 401.668 357.392 401.667C365.108 401.662 372.824 401.67 380.54 401.681C389.945 401.696 399.35 401.692 408.755 401.665C413.553 401.652 418.35 401.647 423.147 401.663C427.541 401.678 431.935 401.67 436.33 401.643C437.916 401.638 439.503 401.641 441.09 401.653C450.896 401.722 459.307 401.143 466.895 394.288C470.676 390.364 472.375 386.146 474 381C474.33 381 474.66 381 475 381C474.319 396.395 473.183 411.752 471.953 427.111C471.731 429.891 471.516 432.672 471.307 435.454C471.002 439.517 470.678 443.579 470.351 447.641C470.261 448.879 470.17 450.118 470.076 451.394C468.897 465.539 468.897 465.539 463.753 469.908C458.618 471.944 453.155 471.518 447.708 471.501C445.571 471.5 443.438 471.542 441.302 471.586C429.898 471.685 429.898 471.685 426.09 468.594C424 466 424 466 423 464C422.402 464.632 422.402 464.632 421.793 465.277C421.263 465.825 420.733 466.373 420.187 466.938C419.665 467.483 419.143 468.028 418.605 468.59C415.74 471.107 412.944 471.126 409.306 471.134C407.85 471.141 407.85 471.141 406.364 471.148C405.296 471.148 404.227 471.147 403.125 471.147C401.425 471.153 401.425 471.153 399.69 471.158C395.872 471.169 392.053 471.173 388.235 471.177C385.505 471.183 382.776 471.19 380.046 471.197C371.841 471.217 363.636 471.227 355.431 471.236C351.568 471.24 347.705 471.245 343.842 471.251C331.003 471.268 318.163 471.282 305.324 471.289C301.992 471.291 298.66 471.293 295.329 471.295C294.5 471.296 293.672 471.296 292.819 471.297C279.399 471.305 265.979 471.33 252.558 471.363C238.783 471.396 225.008 471.414 211.233 471.417C203.498 471.419 195.762 471.428 188.027 471.453C181.44 471.475 174.854 471.483 168.267 471.474C164.906 471.469 161.546 471.473 158.185 471.49C154.541 471.508 150.899 471.501 147.255 471.488C146.193 471.499 145.131 471.51 144.036 471.521C136.693 471.457 133.239 470.24 128 465C127.732 465.619 127.464 466.238 127.187 466.875C126 469 126 469 123 471C119.901 471.267 119.901 471.267 116.037 471.291C114.981 471.301 114.981 471.301 113.903 471.311C111.573 471.33 109.244 471.334 106.914 471.336C105.293 471.342 103.673 471.349 102.053 471.356C98.6547 471.368 95.257 471.372 91.8591 471.371C87.5088 471.37 83.1592 471.398 78.809 471.432C75.4615 471.454 72.1142 471.458 68.7666 471.457C67.1631 471.46 65.5595 471.469 63.956 471.484C61.7105 471.504 59.4664 471.498 57.2209 471.486C55.3059 471.49 55.3059 471.49 53.3522 471.494C49.3281 470.901 47.7137 470.016 44.9998 467C44.127 464.102 44.127 464.102 43.7815 460.736C43.6434 459.488 43.5053 458.239 43.3631 456.953C43.2432 455.649 43.1233 454.344 42.9998 453C42.8703 451.75 42.7409 450.5 42.6076 449.211C42.2065 445.217 41.844 441.221 41.4919 437.223C41.3605 435.757 41.2288 434.292 41.0969 432.827C40.8241 429.786 40.5537 426.744 40.2854 423.703C39.9427 419.82 39.5938 415.938 39.243 412.057C38.9714 409.043 38.7027 406.029 38.435 403.015C38.3075 401.583 38.1791 400.152 38.0498 398.72C37.8698 396.721 37.6942 394.722 37.5188 392.723C37.4182 391.59 37.3177 390.458 37.2141 389.291C36.9901 385.852 36.9635 382.446 36.9998 379Z" fill="#1E2A44"/>
<path d="M141.01 60.612C142.429 60.608 143.849 60.6026 145.269 60.5961C149.11 60.5825 152.951 60.5877 156.791 60.5972C160.818 60.6049 164.844 60.5978 168.871 60.5931C175.63 60.5876 182.389 60.5948 189.149 60.6091C196.957 60.6254 204.764 60.6201 212.572 60.6036C219.285 60.59 225.997 60.5881 232.71 60.5959C236.715 60.6006 240.72 60.6013 244.726 60.5913C248.491 60.5826 252.256 60.5887 256.021 60.606C257.4 60.61 258.78 60.6089 260.159 60.6022C262.046 60.594 263.933 60.6062 265.82 60.6193C267.402 60.621 267.402 60.621 269.016 60.6227C274.199 61.2786 277.242 63.0295 280.437 67.1252C282.243 70.759 282.476 73.775 281.785 77.7541C280.27 82.0866 277.225 84.8439 274 88.0002C273.19 88.8562 272.381 89.7121 271.546 90.594C248.599 114.481 217.822 129.937 187 141C186.11 141.324 185.221 141.647 184.305 141.98C136.247 159.307 136.247 159.307 120.625 152.5C114.797 149.064 111.201 143.696 109.424 137.241C108.513 132.429 108.673 127.519 108.664 122.637C108.657 121.45 108.65 120.263 108.643 119.039C108.633 116.534 108.629 114.028 108.629 111.523C108.625 107.711 108.588 103.9 108.55 100.088C108.545 97.6461 108.541 95.204 108.539 92.7619C108.524 91.6325 108.51 90.503 108.495 89.3393C108.539 81.6385 109.396 74.0761 114.691 68.0872C122.572 60.6758 130.672 60.5623 141.01 60.612Z" fill="#C8CDE1"/>
<path d="M36.9998 379C37.3298 379 37.6598 379 37.9998 379C38.1467 379.641 38.2937 380.281 38.4451 380.941C40.3267 388.198 42.7659 393.001 48.9518 397.383C56.7871 401.834 64.4967 401.702 73.2446 401.635C74.8878 401.641 76.531 401.649 78.1741 401.659C82.6703 401.679 87.1658 401.669 91.6619 401.654C96.5182 401.642 101.374 401.66 106.231 401.674C115.736 401.696 125.242 401.691 134.748 401.676C142.474 401.665 150.201 401.664 157.928 401.669C159.028 401.67 160.128 401.671 161.262 401.671C163.497 401.673 165.733 401.675 167.968 401.676C188.922 401.691 209.876 401.674 230.831 401.647C248.804 401.625 266.777 401.629 284.751 401.652C305.631 401.679 326.511 401.689 347.39 401.674C349.618 401.672 351.845 401.671 354.072 401.669C355.168 401.668 356.263 401.668 357.392 401.667C365.108 401.662 372.824 401.67 380.54 401.681C389.945 401.696 399.35 401.692 408.755 401.665C413.553 401.652 418.35 401.647 423.147 401.663C427.541 401.678 431.935 401.67 436.33 401.643C437.916 401.638 439.503 401.641 441.09 401.653C450.896 401.722 459.307 401.143 466.895 394.288C470.676 390.364 472.375 386.146 474 381C474.33 381 474.66 381 475 381C474.319 396.395 473.183 411.752 471.953 427.111C471.731 429.891 471.516 432.672 471.307 435.454C471.002 439.517 470.678 443.579 470.351 447.641C470.261 448.879 470.17 450.118 470.076 451.394C468.897 465.539 468.897 465.539 463.753 469.908C458.618 471.944 453.155 471.518 447.708 471.501C445.571 471.5 443.438 471.542 441.302 471.586C429.898 471.685 429.898 471.685 426.09 468.594C412.356 451.549 423 424.889 423 403C325.32 403 227.64 403 127 403C127.33 423.46 127.66 443.92 128 465C126 469 126 469 123 471C119.901 471.267 119.901 471.267 116.037 471.291C114.981 471.301 114.981 471.301 113.903 471.311C111.573 471.33 109.244 471.334 106.914 471.336C105.293 471.342 103.673 471.349 102.053 471.356C98.6547 471.368 95.257 471.372 91.8591 471.371C87.5088 471.37 83.1592 471.398 78.809 471.432C75.4615 471.454 72.1142 471.458 68.7666 471.457C67.1631 471.46 65.5595 471.469 63.956 471.484C61.7105 471.504 59.4664 471.498 57.2209 471.486C55.3059 471.49 55.3059 471.49 53.3522 471.494C49.3281 470.901 47.7137 470.016 44.9998 467C44.127 464.102 44.127 464.102 43.7815 460.736C43.6434 459.488 43.5053 458.239 43.3631 456.953C43.2432 455.649 43.1233 454.344 42.9998 453C42.8703 451.75 42.7409 450.5 42.6076 449.211C42.2065 445.217 41.844 441.221 41.4919 437.223C41.3605 435.757 41.2288 434.292 41.0969 432.827C40.8241 429.786 40.5537 426.744 40.2854 423.703C39.9427 419.82 39.5938 415.938 39.243 412.057C38.9714 409.043 38.7027 406.029 38.435 403.015C38.3075 401.583 38.1791 400.152 38.0498 398.72C37.8698 396.721 37.6942 394.722 37.5188 392.723C37.4182 391.59 37.3177 390.458 37.2141 389.291C36.9901 385.852 36.9635 382.446 36.9998 379Z" fill="#304259"/>
<path d="M324.063 63.4337C325.422 63.4285 326.782 63.4222 328.141 63.4149C330.979 63.4046 333.816 63.409 336.653 63.4237C340.272 63.4409 343.888 63.4174 347.506 63.3822C350.31 63.3602 353.113 63.3617 355.917 63.37C357.894 63.3712 359.87 63.3514 361.846 63.3311C370.189 63.4171 375.496 64.5942 381.511 70.4781C386.423 75.9586 387.326 81.2183 387.746 88.3556C387.83 89.607 387.83 89.607 387.915 90.8838C388.097 93.6513 388.267 96.4194 388.438 99.1876C388.564 101.131 388.691 103.074 388.818 105.018C389.524 115.88 390.164 126.746 390.789 137.613C390.854 138.734 390.919 139.855 390.986 141.01C391.303 146.472 391.614 151.933 391.91 157.395C392.949 180.016 392.949 180.016 404.438 198.875C420.29 216.574 428.636 240.491 428.25 264.074C426.308 294.579 410.378 320.081 388 340C369.195 355.915 345.835 367.09 322 373C320.87 371.755 319.746 370.504 318.625 369.25C317.685 368.206 317.685 368.206 316.727 367.141C315.117 365.145 314.099 363.298 313 361C317.624 359.442 322.253 357.913 326.91 356.457C338.188 352.888 348.665 348.758 359 343C359.955 342.478 359.955 342.478 360.928 341.946C370.57 336.63 378.883 330.424 387 323C387.811 322.272 388.622 321.543 389.457 320.793C405.447 305.699 417.348 283.462 418.238 261.32C418.639 242.727 415.219 228.144 406 212C405.13 210.469 405.13 210.469 404.242 208.906C400.732 203.094 396.629 198.243 392.016 193.277C385.206 185.583 383.762 177.128 383.27 167.213C383.189 165.777 383.189 165.777 383.106 164.313C382.99 162.245 382.878 160.177 382.769 158.109C382.596 154.834 382.412 151.56 382.224 148.286C381.694 138.98 381.183 129.673 380.68 120.366C380.371 114.664 380.049 108.963 379.72 103.263C379.597 101.094 379.48 98.9245 379.367 96.755C379.21 93.7219 379.037 90.6901 378.86 87.6581C378.818 86.7649 378.775 85.8718 378.732 84.9516C378.419 79.9158 377.559 76.4607 375 72.0001C375 71.3401 375 70.6801 375 70.0001C370.927 68.4834 367.522 67.7433 363.182 67.7096C362.06 67.6969 360.939 67.6841 359.784 67.6709C358.587 67.6687 357.39 67.6665 356.156 67.6642C354.293 67.6542 354.293 67.6542 352.391 67.644C349.769 67.6339 347.146 67.6292 344.524 67.6295C341.841 67.6297 339.159 67.6157 336.476 67.5885C332.599 67.5519 328.722 67.5421 324.844 67.5392C323.048 67.5176 323.048 67.5176 321.217 67.4957C314.871 67.5305 310.777 67.629 306 72.0001C303.678 75.2359 303.552 78.6639 303.125 82.5626C300.948 98.7238 293.282 112.397 280.727 122.902C258.309 139.325 230.209 146.849 204.307 155.946C185.278 162.668 167.406 171.835 152 185C151.191 185.664 150.381 186.328 149.547 187.012C131.759 202.143 119.164 223.601 117 247C115.86 264.817 119.125 279.546 126 296C124.881 297.173 123.755 298.338 122.625 299.5C121.685 300.475 121.685 300.475 120.727 301.469C119 303 119 303 117 303C106.688 279.173 103.342 252.786 113 228C121.943 206.155 136.927 188.639 156 175C156.543 174.609 157.086 174.217 157.646 173.814C176.103 160.723 197.038 153.732 218.241 146.472C230.75 142.182 243.076 137.758 255 132C255.763 131.638 256.527 131.275 257.313 130.902C272.272 123.713 285.387 114.663 291.25 98.3751C292.525 94.2297 293.347 90.1289 294.033 85.859C295.158 78.9251 296.211 72.5947 302 68.0001C309.239 63.3979 315.624 63.4013 324.063 63.4337Z" fill="#AEB6CD"/>
<path d="M297.125 233.812C301.343 236.966 304.073 240.671 307 245C307.847 246.164 308.699 247.325 309.554 248.484C310.474 249.739 311.393 250.994 312.312 252.25C312.757 252.852 313.203 253.455 313.662 254.076C317.911 259.967 317.911 259.967 318 263C313.708 273.721 305.266 279.928 295.156 284.715C287.812 287.705 279.92 289.512 272 290C271.082 290.064 270.164 290.129 269.218 290.195C252.095 290.831 235.582 285.631 222.84 274.027C219.725 270.595 217.975 268.486 218.054 263.715C219.188 259.261 220.927 255.578 223.125 251.562C223.535 250.811 223.945 250.06 224.368 249.285C230.798 237.774 238.162 231.537 250.906 227.377C266.255 223.131 283.545 225.551 297.125 233.812Z" fill="#C8CDE1"/>
<path d="M36.9998 379C37.3298 379 37.6598 379 37.9998 379C38.1467 379.641 38.2937 380.281 38.4451 380.941C40.1422 387.486 42.0123 391.375 46.9998 396C59.4631 403.099 59.4631 403.099 85.9998 402C85.9998 424.77 85.9998 447.54 85.9998 471C77.2444 471.124 77.2444 471.124 68.3123 471.25C66.4783 471.286 64.6444 471.323 62.7549 471.36C61.2909 471.372 59.827 471.382 58.363 471.391C57.6113 471.411 56.8596 471.432 56.0851 471.453C52.59 471.455 50.3376 471.207 47.3339 469.363C44.4316 466.425 44.1993 464.806 43.7815 460.736C43.6434 459.488 43.5053 458.239 43.3631 456.953C43.2432 455.649 43.1233 454.344 42.9998 453C42.8703 451.75 42.7409 450.5 42.6076 449.211C42.2065 445.217 41.844 441.221 41.4919 437.223C41.3605 435.757 41.2288 434.292 41.0969 432.827C40.8241 429.786 40.5537 426.744 40.2854 423.703C39.9427 419.82 39.5938 415.938 39.243 412.057C38.9714 409.043 38.7027 406.029 38.435 403.015C38.3075 401.583 38.1791 400.152 38.0498 398.72C37.8698 396.721 37.6942 394.722 37.5188 392.723C37.4182 391.59 37.3177 390.458 37.2141 389.291C36.9901 385.852 36.9635 382.446 36.9998 379Z" fill="#1D2943"/>
<path d="M127 296C128.227 297.836 128.227 297.836 129.625 300.375C147.281 330.624 180.663 349.426 213.73 358.203C219.468 359.601 225.2 360.886 231 362C231.67 362.138 232.341 362.277 233.031 362.419C247.671 365.399 262.108 365.4 277 365C277.849 364.979 278.699 364.958 279.574 364.937C286.066 364.751 292.355 364.458 298.68 362.914C310.488 360.117 310.488 360.117 315.355 362.961C317.946 365.512 320.075 367.919 322 371C322 371.66 322 372.32 322 373C266.869 385.681 211.721 381.122 162.812 351.188C155.281 346.447 148.536 341.024 142 335C140.565 333.689 140.565 333.689 139.102 332.352C134.03 327.507 129.597 322.425 125.5 316.75C125.09 316.184 124.681 315.617 124.259 315.034C121.57 311.17 119.722 307.349 118 303C119.119 301.827 120.245 300.662 121.375 299.5C122.315 298.525 122.315 298.525 123.273 297.531C125 296 125 296 127 296Z" fill="#E0E4EE"/>
<path d="M86 402C99.86 402 113.72 402 128 402C128.042 410.138 128.082 418.275 128.104 426.413C128.114 430.203 128.128 433.992 128.151 437.782C128.173 441.432 128.185 445.083 128.19 448.733C128.193 450.125 128.201 451.518 128.211 452.91C128.226 454.861 128.227 456.812 128.227 458.763C128.231 459.873 128.236 460.983 128.241 462.127C127.999 465.017 127.613 466.615 126 469C122.164 471.558 119.055 471.253 114.613 471.195C113.889 471.193 113.165 471.191 112.418 471.189C109.716 471.179 107.014 471.151 104.312 471.125C98.2694 471.084 92.2263 471.043 86 471C86 448.23 86 425.46 86 402Z" fill="#31445B"/>
<path d="M395 188C395.571 188.73 396.142 189.459 396.73 190.211C398.832 192.794 401.031 195.201 403.312 197.625C419.69 215.798 428.649 239.677 428.25 264.074C426.307 294.579 410.378 320.081 388 340C369.195 355.915 345.835 367.09 322 373C320.87 371.755 319.746 370.504 318.625 369.25C317.999 368.554 317.372 367.858 316.727 367.141C315.117 365.145 314.099 363.298 313 361C317.624 359.442 322.253 357.913 326.91 356.457C338.188 352.888 348.665 348.758 359 343C359.636 342.652 360.273 342.304 360.928 341.946C370.57 336.63 378.883 330.424 387 323C387.811 322.272 388.622 321.543 389.457 320.793C405.447 305.699 417.348 283.462 418.238 261.32C418.784 236.014 410.954 213.237 393.285 194.559C392 193 392 193 392 191C393.5 189.375 393.5 189.375 395 188Z" fill="#9DA8C8"/>
<path d="M141.01 60.612C142.43 60.608 143.85 60.6026 145.27 60.5961C149.111 60.5825 152.951 60.5877 156.792 60.5972C160.819 60.6049 164.845 60.5978 168.871 60.5931C175.631 60.5876 182.39 60.5948 189.149 60.6091C196.957 60.6254 204.765 60.6201 212.573 60.6036C219.285 60.59 225.998 60.5881 232.711 60.5959C236.716 60.6006 240.721 60.6013 244.726 60.5913C248.492 60.5826 252.256 60.5887 256.022 60.606C257.401 60.61 258.78 60.6089 260.16 60.6022C262.047 60.594 263.934 60.6062 265.821 60.6193C267.403 60.621 267.403 60.621 269.017 60.6227C272.568 61.0721 274.968 62.1151 278 64.0002C278.33 64.9902 278.66 65.9802 279 67.0002C277.68 67.9902 276.36 68.9802 275 70.0002C274.67 69.6702 274.34 69.3402 274 69.0002C272.131 68.8906 270.257 68.8517 268.384 68.8396C267.165 68.8295 265.945 68.8195 264.688 68.8091C263.324 68.8031 261.96 68.7972 260.596 68.7915C259.168 68.7819 257.741 68.7721 256.314 68.7618C251.613 68.7304 246.912 68.7102 242.211 68.6916C241.012 68.6867 241.012 68.6867 239.789 68.6816C232.25 68.6508 224.711 68.6241 217.173 68.6072C207.527 68.5853 197.882 68.5434 188.236 68.4738C181.456 68.4265 174.677 68.4023 167.897 68.395C163.847 68.3901 159.798 68.375 155.748 68.3353C151.935 68.2983 148.122 68.29 144.308 68.3033C142.912 68.3032 141.515 68.293 140.118 68.2715C131.355 67.9923 131.355 67.9923 123.739 71.7313C119.769 75.9578 118.754 79.7893 118.726 85.5215C118.716 86.6029 118.707 87.6843 118.697 88.7984C118.698 90.5361 118.698 90.5361 118.7 92.3088C118.695 93.5083 118.691 94.7078 118.687 95.9436C118.681 98.4778 118.68 101.012 118.685 103.546C118.688 107.42 118.664 111.293 118.639 115.166C118.637 117.63 118.636 120.095 118.637 122.559C118.628 123.715 118.619 124.872 118.609 126.063C118.647 132.61 118.852 137.706 123.606 142.68C124.128 143.074 124.65 143.469 125.188 143.875C126.58 144.927 126.58 144.927 128 146C126.625 148.5 126.625 148.5 125 151C124.34 151 123.68 151 123 151C122.505 151.99 122.505 151.99 122 153C115.429 148.79 111.712 144.747 109.468 137.214C108.926 134.649 108.851 132.278 108.823 129.656C108.81 128.587 108.798 127.519 108.784 126.418C108.777 125.267 108.77 124.116 108.762 122.93C108.754 121.738 108.746 120.547 108.738 119.32C108.724 116.796 108.713 114.273 108.705 111.749C108.688 107.911 108.644 104.073 108.6 100.235C108.59 97.7789 108.581 95.3231 108.575 92.8674C108.557 91.7285 108.54 90.5896 108.521 89.4162C108.542 81.679 109.368 74.1068 114.692 68.0876C122.571 60.6749 130.673 60.5623 141.01 60.612Z" fill="#9099B2"/>
<path d="M474 381C474.33 381 474.66 381 475 381C474.319 396.395 473.183 411.752 471.953 427.111C471.731 429.891 471.516 432.672 471.308 435.454C471.003 439.517 470.678 443.579 470.352 447.641C470.215 449.498 470.215 449.498 470.077 451.394C469.122 462.847 469.122 462.847 466 468C461 471 461 471 449 471C449 448.23 449 425.46 449 402C451.64 401.34 454.28 400.68 457 400C463.129 397.823 467.47 394.488 471 389C472.228 386.353 473.118 383.793 474 381Z" fill="#1D2943"/>
<path d="M225 249C225.33 249 225.66 249 226 249C226.147 249.978 226.147 249.978 226.297 250.977C227.608 258.638 229.867 263.829 236.168 268.773C245.606 275.093 254.706 277.341 265.938 277.25C266.888 277.258 267.839 277.265 268.818 277.273C274.575 277.258 279.485 276.656 285 275C285.875 274.74 286.751 274.479 287.652 274.211C295.399 271.377 301.399 266.902 306 260C307.237 256.288 307.664 252.897 308 249C309.694 250.645 311.355 252.306 313 254C313.733 254.739 313.733 254.739 314.48 255.492C315.875 257 315.875 257 318 260C317.428 266.788 312.733 272.663 307.875 277.188C297.736 285.21 284.798 289.212 272 290C271.082 290.064 270.164 290.129 269.219 290.195C252.096 290.831 235.582 285.631 222.84 274.027C219.902 270.79 218.026 268.309 217.938 263.875C218.971 258.455 222.228 253.688 225 249Z" fill="#9EA9C9"/>
<path d="M386.875 421.563C392.165 425.523 394.438 429.354 395.442 435.863C395.838 442.501 394.779 446.864 390.723 452.156C387.121 456.011 383.179 458.656 377.801 459.238C371.675 459.421 366.942 458.82 362 455C356.337 448.868 354.666 444.015 354.797 435.715C355.224 430.009 357.777 427.016 361.813 423.25C369.603 416.859 378.182 416.307 386.875 421.563Z" fill="#78E45C"/>
<path d="M305.875 228.375C311.449 233.04 317.533 238.589 319 246C319.233 251.015 319.174 255.984 319 261C315.634 257.762 312.759 254.498 310.063 250.687C309.37 249.728 308.678 248.769 307.965 247.781C306.785 246.112 305.625 244.428 304.504 242.719C298.348 233.651 288.614 229.412 278.056 227.313C263.349 225.071 248.815 227.031 236.203 235.269C227.637 241.998 223.551 252.399 219 262C218.67 262.66 218.34 263.32 218 264C217.34 264 216.68 264 216 264C213.329 258.657 214.194 248.363 215.938 242.687C221.074 231.67 231.428 225.078 242.313 220.75C262.831 213.834 288.1 215.14 305.875 228.375Z" fill="#EFF4F9"/>
<path d="M188.461 158.793C189.223 159.39 189.223 159.39 190 160C188.362 163.277 184.819 164.172 181.625 165.687C170.793 170.977 161.22 177.214 152 185C150.782 185.998 150.782 185.998 149.539 187.015C131.759 202.159 119.164 223.596 117 247C115.86 264.816 119.125 279.545 126 296C124.881 297.172 123.755 298.338 122.625 299.5C121.685 300.474 121.685 300.474 120.727 301.469C119 303 119 303 117 303C106.688 279.172 103.342 252.786 113 228C125.55 197.346 149.827 176.354 178.625 161.312C179.3 160.949 179.976 160.585 180.672 160.21C185.427 157.815 185.427 157.815 188.461 158.793Z" fill="#9DA8C8"/>
<path d="M279 68C280.928 69.6 281.913 70.4621 282.32 72.9805C281.704 79.9429 278.883 83.2212 274 88C273.19 88.8559 272.381 89.7119 271.547 90.5938C248.599 114.481 217.822 129.937 187 141C186.111 141.323 185.221 141.647 184.305 141.98C167.392 148.078 148.708 154.266 130.562 154.062C129.512 154.053 128.461 154.044 127.379 154.035C126.201 154.018 126.201 154.018 125 154C125 151 125 151 126.605 148.859C129.665 146.483 131.456 146.473 135.312 146.25C181.532 141.998 228.473 119.455 263.562 89.75C264.122 89.2791 264.682 88.8082 265.258 88.323C271.541 82.8921 276.325 78.6044 277 70C277.66 69.34 278.32 68.68 279 68Z" fill="#DFE3ED"/>
<path d="M305.625 410C308.952 410.986 309.967 411.351 312 414C312.388 416.042 312.388 416.042 312.404 418.408C312.417 419.296 312.43 420.184 312.443 421.098C312.44 422.055 312.437 423.011 312.434 423.996C312.439 424.981 312.444 425.966 312.45 426.981C312.456 429.065 312.455 431.149 312.446 433.233C312.438 436.422 312.466 439.61 312.498 442.799C312.5 444.823 312.499 446.847 312.496 448.871C312.513 450.302 312.513 450.302 312.53 451.763C312.461 458.338 312.461 458.338 310.188 461.602C306.957 463.666 304.748 463.535 301 463C298.817 461.584 298.817 461.584 297 459C296.389 455.723 296.416 452.486 296.434 449.16C296.428 448.201 296.421 447.242 296.415 446.254C296.408 444.227 296.411 442.201 296.424 440.174C296.438 437.077 296.404 433.982 296.365 430.885C296.364 428.914 296.366 426.943 296.371 424.973C296.358 424.049 296.345 423.124 296.331 422.172C296.396 417.649 296.55 415.608 299.313 411.877C302 410 302 410 305.625 410Z" fill="#C6CCE0"/>
<path d="M281.625 409.938C285 411 285 411 286.684 412.449C288.755 416.463 288.448 420.422 288.434 424.875C288.439 425.836 288.444 426.798 288.45 427.789C288.456 429.819 288.455 431.85 288.446 433.881C288.438 436.989 288.466 440.095 288.498 443.203C288.5 445.177 288.499 447.151 288.496 449.125C288.513 450.519 288.513 450.519 288.53 451.941C288.461 458.342 288.461 458.342 286.188 461.586C282.96 463.672 280.756 463.536 277 463C274.817 461.584 274.817 461.584 273 459C272.389 455.723 272.416 452.486 272.434 449.16C272.428 448.201 272.421 447.242 272.415 446.254C272.408 444.227 272.411 442.201 272.424 440.174C272.438 437.077 272.404 433.982 272.365 430.885C272.364 428.914 272.366 426.943 272.371 424.973C272.358 424.049 272.345 423.124 272.331 422.172C272.396 417.65 272.548 415.609 275.313 411.881C278 410 278 410 281.625 409.938Z" fill="#C6CCE0"/>
<path d="M257.625 410C260.952 410.986 261.967 411.351 264 414C264.388 416.042 264.388 416.042 264.404 418.408C264.417 419.296 264.43 420.184 264.443 421.098C264.44 422.055 264.437 423.011 264.434 423.996C264.439 424.981 264.444 425.966 264.45 426.981C264.456 429.065 264.455 431.149 264.446 433.233C264.438 436.422 264.466 439.61 264.498 442.799C264.5 444.823 264.499 446.847 264.496 448.871C264.513 450.302 264.513 450.302 264.53 451.763C264.461 458.338 264.461 458.338 262.188 461.602C258.957 463.666 256.748 463.535 253 463C250.817 461.584 250.817 461.584 249 459C248.389 455.723 248.416 452.486 248.434 449.16C248.428 448.201 248.421 447.242 248.415 446.254C248.408 444.227 248.411 442.201 248.424 440.174C248.438 437.077 248.404 433.982 248.365 430.885C248.364 428.914 248.366 426.943 248.371 424.973C248.358 424.049 248.345 423.124 248.331 422.172C248.396 417.649 248.55 415.608 251.313 411.877C254 410 254 410 257.625 410Z" fill="#C7CCE0"/>
<path d="M237 411C239.104 412.805 239.901 414.287 240.283 417.034C240.416 419.652 240.442 422.253 240.434 424.875C240.439 425.836 240.444 426.798 240.45 427.788C240.456 429.819 240.455 431.85 240.446 433.881C240.438 436.989 240.466 440.095 240.498 443.203C240.5 445.177 240.499 447.151 240.496 449.125C240.513 450.519 240.513 450.519 240.53 451.941C240.461 458.342 240.461 458.342 238.188 461.586C234.96 463.672 232.756 463.536 229 463C226.817 461.599 226.817 461.599 225 459C224.388 455.639 224.416 452.315 224.434 448.906C224.428 447.922 224.421 446.939 224.415 445.925C224.408 443.847 224.411 441.77 224.424 439.692C224.438 436.511 224.404 433.333 224.365 430.152C224.364 428.133 224.366 426.113 224.371 424.094C224.351 422.667 224.351 422.667 224.331 421.211C224.424 414.656 224.424 414.656 227.313 411.369C231.005 409.488 233.072 409.836 237 411Z" fill="#C6CCE0"/>
<path d="M189 411C191.073 412.798 191.896 414.266 192.283 416.988C192.415 419.537 192.442 422.068 192.434 424.621C192.439 425.558 192.444 426.495 192.45 427.46C192.456 429.44 192.455 431.419 192.446 433.399C192.438 436.423 192.466 439.446 192.498 442.471C192.5 444.396 192.499 446.321 192.496 448.246C192.513 449.599 192.513 449.599 192.53 450.98C192.484 455.122 192.329 457.441 190.188 461.074C188 463 188 463 184.5 463.562C181 463 181 463 178.817 461.596C176.005 457.579 176.409 453.699 176.434 448.906C176.428 447.922 176.421 446.939 176.415 445.925C176.408 443.847 176.411 441.77 176.424 439.692C176.438 436.511 176.404 433.333 176.365 430.152C176.364 428.133 176.366 426.113 176.371 424.094C176.351 422.667 176.351 422.667 176.331 421.211C176.424 414.656 176.424 414.656 179.313 411.369C183.005 409.488 185.072 409.836 189 411Z" fill="#C6CCE0"/>
<path d="M209.063 410C212.589 411.2 213.801 411.981 216 415C216.602 418.204 216.561 421.368 216.531 424.621C216.535 425.558 216.539 426.495 216.543 427.46C216.546 429.44 216.538 431.419 216.522 433.399C216.5 436.424 216.521 439.446 216.547 442.471C216.544 444.396 216.539 446.321 216.531 448.246C216.539 449.148 216.548 450.051 216.556 450.98C216.494 455.118 216.327 457.447 214.186 461.074C212 463 212 463 208.5 463.562C205 463 205 463 202.817 461.596C200.005 457.579 200.409 453.699 200.434 448.906C200.428 447.923 200.421 446.939 200.415 445.925C200.408 443.848 200.411 441.77 200.424 439.692C200.438 436.511 200.404 433.333 200.365 430.152C200.364 428.133 200.366 426.113 200.371 424.094C200.351 422.667 200.351 422.667 200.331 421.212C200.424 414.646 200.424 414.646 203.348 411.369C206 410 206 410 209.063 410Z" fill="#C6CCE0"/>
<path d="M161.063 410C164.589 411.2 165.801 411.981 168 415C168.602 418.204 168.561 421.368 168.531 424.621C168.535 425.558 168.539 426.495 168.543 427.46C168.546 429.44 168.538 431.419 168.522 433.399C168.5 436.424 168.521 439.446 168.547 442.471C168.544 444.396 168.539 446.321 168.531 448.246C168.539 449.148 168.548 450.051 168.556 450.98C168.494 455.118 168.327 457.447 166.186 461.074C164 463 164 463 160.5 463.562C157 463 157 463 154.817 461.596C152.005 457.579 152.409 453.699 152.434 448.906C152.428 447.923 152.421 446.939 152.415 445.925C152.408 443.848 152.411 441.77 152.424 439.692C152.438 436.511 152.404 433.333 152.365 430.152C152.364 428.133 152.366 426.113 152.371 424.094C152.351 422.667 152.351 422.667 152.331 421.212C152.424 414.646 152.424 414.646 155.348 411.369C158 410 158 410 161.063 410Z" fill="#C6CCE0"/>
<path d="M113 71C114.708 72.2806 116.374 73.6177 118 75C118 75.66 118 76.32 118 77C118.66 77.33 119.32 77.66 120 78C119.67 78.66 119.34 79.32 119 80C118.894 81.7245 118.852 83.453 118.839 85.1807C118.825 86.8031 118.825 86.8031 118.81 88.4583C118.804 90.2192 118.804 90.2192 118.797 92.0156C118.791 93.2193 118.786 94.4231 118.78 95.6633C118.77 98.2154 118.764 100.768 118.76 103.32C118.75 107.22 118.719 111.12 118.688 115.02C118.681 117.497 118.676 119.975 118.672 122.453C118.66 123.619 118.647 124.785 118.635 125.986C118.653 132.567 118.825 137.678 123.606 142.68C124.128 143.074 124.65 143.469 125.188 143.875C126.58 144.927 126.58 144.927 128 146C126.625 148.5 126.625 148.5 125 151C124.34 151 123.68 151 123 151C122.505 151.99 122.505 151.99 122 153C115.428 148.788 111.717 144.747 109.467 137.215C108.924 134.638 108.858 132.259 108.839 129.624C108.83 128.549 108.82 127.474 108.81 126.366C108.806 125.209 108.802 124.052 108.797 122.859C108.791 121.663 108.786 120.467 108.78 119.235C108.77 116.703 108.764 114.171 108.76 111.639C108.75 107.779 108.719 103.919 108.688 100.059C108.681 97.5964 108.676 95.1341 108.672 92.6719C108.66 91.5227 108.647 90.3734 108.635 89.1894C108.673 75.3273 108.673 75.3273 113 71Z" fill="#9CA7C6"/>
<path d="M78 352C81.0812 354.27 81.8858 355.663 83.125 359.312C82.9718 363.832 81.8208 365.401 78.7305 368.554C74.2082 372.331 69.0494 372.39 63.3945 372.246C58.5642 371.749 55.3785 369.638 52.0625 366.25C50 363 50 363 49.875 359.437C51.4524 354.617 53.8847 352.269 58.1875 349.687C65.3019 347.948 71.6158 348.425 78 352Z" fill="#E8EDF3"/>
<path d="M457.562 355.188C461.349 358.003 463.657 360.207 464.562 364.938C463.821 368.976 462.048 371.384 459 374C453.761 377.023 448.929 377.926 443 377C439.153 375.695 436.053 373.922 433 371.25C431.479 367.829 431.223 364.62 432 361C438.434 352.779 447.956 351.985 457.562 355.188Z" fill="#E8EDF2"/>
<path d="M94.875 172.25C99.5106 174.846 99.5106 174.846 101 178C101.487 181.9 101.666 184.052 99.375 187.313C94.1044 191.058 88.3198 191.911 82 191C78.0034 189.464 75.4094 187.614 73 184C72.5625 181.125 72.5625 181.125 73 178C78.8668 170.83 86.1827 168.873 94.875 172.25Z" fill="#E9EEF4"/>
<path d="M435.5 177.313C436.325 177.869 437.15 178.426 438 179C438.619 179.413 439.237 179.825 439.875 180.25C441.8 183.244 441.476 185.551 441 189C438.165 192.646 435.484 194.853 431 196C424.143 196.544 420.19 195.434 414.625 191.188C413 189 413 189 412.5 186.063C413.118 182.277 414.306 180.694 417 178C422.548 174.554 429.578 175.092 435.5 177.313Z" fill="#E8EDF3"/>
<path d="M392 429C395.672 433.123 395.617 436.537 395.48 441.887C394.604 447.561 391.674 451.692 387.371 455.406C381.853 459.279 376.525 459.669 370 459C363.971 457.337 360.577 453.834 356.933 448.902C356 447 356 447 357 444C358.113 444.928 358.113 444.928 359.25 445.875C365.262 450.521 370.5 450.933 378 450C383.607 447.893 387.357 444.387 390 439C390.863 435.691 391.492 432.381 392 429Z" fill="#E8EFF2"/>
<path d="M316.148 63.7096C317.366 63.6968 318.585 63.684 319.84 63.6709C321.148 63.6687 322.457 63.6664 323.805 63.6642C325.171 63.6577 326.537 63.651 327.903 63.644C330.763 63.632 333.622 63.6283 336.482 63.6295C340.133 63.6297 343.782 63.6024 347.433 63.5679C350.254 63.5456 353.074 63.5417 355.895 63.5427C357.891 63.5392 359.887 63.5176 361.882 63.4956C368.789 63.5303 373.405 63.7915 379 68.0001C378.34 69.3201 377.68 70.6401 377 72.0001C376.34 72.0001 375.68 72.0001 375 72.0001C375 71.3401 375 70.6801 375 70.0001C370.918 68.4776 367.517 67.7458 363.166 67.7254C362.041 67.7159 360.917 67.7064 359.758 67.6965C358.558 67.6975 357.358 67.6984 356.121 67.6993C354.876 67.695 353.631 67.6907 352.349 67.6863C349.051 67.6791 345.754 67.6822 342.456 67.6879C340.438 67.6876 338.419 67.6775 336.401 67.6639C332.516 67.6394 328.631 67.6353 324.746 67.6368C323.544 67.6276 322.342 67.6184 321.103 67.6089C319.982 67.6151 318.86 67.6214 317.705 67.6278C316.721 67.6271 315.738 67.6265 314.725 67.6259C311.539 68.0634 309.706 69.3224 307 71.0001C303.688 70.6876 303.688 70.6876 301 70.0001C305.524 64.9734 309.467 63.7572 316.148 63.7096Z" fill="#9EA9C8"/>
<path d="M421 58.0001C424.062 59.1876 424.062 59.1876 426 61.0001C427.086 63.8246 427.219 65.3031 426.312 68.1876C424.721 70.386 423.497 70.9695 421 72.0001C416.746 72.5861 413.024 72.3841 409 70.8751C407 69.0001 407 69.0001 405.875 66.1251C406 63.0001 406 63.0001 407.812 60.1251C412.245 57.1701 415.817 57.2256 421 58.0001Z" fill="#D8DEE8"/>
<path d="M102 52.9998C105 54.1248 105 54.1248 107 55.9998C108.125 58.8748 108.125 58.8748 108 61.9998C106.25 64.8748 106.25 64.8748 103 66.9998C98.0566 67.8394 93.6688 68.009 89.3121 65.3748C87.5802 62.2408 87.3384 60.5263 87.9996 56.9998C91.8632 52.2638 96.3088 52.1647 102 52.9998Z" fill="#D2D8E3"/>
<path d="M71 352C74.0625 353.125 74.0625 353.125 76 355C76.8125 358.188 76.8125 358.188 77 361C73.283 364.717 70.2432 365.737 65.1523 366.109C61.0442 365.901 58.7894 363.789 56 361C56.1427 357.646 56.2694 355.698 58.7461 353.332C62.643 351.029 66.6121 351.489 71 352Z" fill="#32435A"/>
<path d="M453 357C456.188 358.688 456.188 358.688 458 361C458.625 363.5 458.625 363.5 458 366C455.766 368.85 453.965 369.844 450.395 370.422C445.554 370.657 442.84 370.565 438.75 367.813C437 365 437 365 436.938 362.375C439.97 355.596 446.549 356.141 453 357Z" fill="#33435A"/>
<path d="M86.9375 173.688C87.7921 173.671 88.6468 173.654 89.5273 173.637C92.4883 174.072 93.843 174.956 96 177C96.625 179.438 96.625 179.438 96 182C93.0459 184.602 90.8928 185.851 87 186.5C83.2378 185.873 81.0061 184.29 78 182C78.3125 179.125 78.3125 179.125 79 176C82.2062 173.863 83.2246 173.704 86.9375 173.688Z" fill="#36475D"/>
<path d="M260 411C263.85 413.396 263.85 413.396 264.508 416.042C264.511 416.823 264.514 417.604 264.518 418.408C264.53 419.296 264.543 420.184 264.556 421.098C264.544 422.533 264.544 422.533 264.531 423.996C264.535 424.981 264.539 425.966 264.543 426.981C264.546 429.065 264.538 431.149 264.521 433.233C264.5 436.422 264.521 439.609 264.547 442.799C264.544 444.823 264.539 446.847 264.531 448.871C264.539 449.825 264.547 450.78 264.556 451.763C264.463 458.331 264.463 458.331 262.193 461.61C259.033 463.613 256.656 463.406 253 463C252.34 462.34 251.68 461.68 251 461C252.114 460.732 253.227 460.464 254.375 460.188C258.218 459.342 258.218 459.342 260 456C260.289 453.88 260.289 453.88 260.227 451.529C260.227 450.628 260.227 449.727 260.227 448.799C260.216 447.83 260.206 446.861 260.195 445.863C260.192 444.869 260.19 443.874 260.187 442.849C260.176 439.67 260.15 436.492 260.125 433.312C260.115 431.158 260.106 429.004 260.098 426.85C260.076 421.566 260.042 416.283 260 411Z" fill="#9CA7C6"/>
<path d="M433 179C435 180.25 435 180.25 436 182C436.438 184.5 436.438 184.5 436 187C433.087 189.767 430.979 190.432 427 190.438C423.598 190.327 422.25 190.157 419.312 188.313C418 186 418 186 417.875 183.438C419 181 419 181 421.562 179.125C426.048 177.657 428.406 177.946 433 179Z" fill="#3D4D63"/>
<path d="M308 411C311.85 413.396 311.85 413.396 312.508 416.042C312.511 416.823 312.514 417.604 312.518 418.408C312.53 419.296 312.543 420.184 312.556 421.098C312.544 422.533 312.544 422.533 312.531 423.996C312.535 424.981 312.539 425.966 312.543 426.981C312.546 429.065 312.538 431.149 312.521 433.233C312.5 436.422 312.521 439.609 312.547 442.799C312.544 444.823 312.539 446.847 312.531 448.871C312.539 449.825 312.547 450.78 312.556 451.763C312.463 458.331 312.463 458.331 310.193 461.61C307.033 463.613 304.656 463.406 301 463C300.34 462.34 299.68 461.68 299 461C301.64 460.67 304.28 460.34 307 460C307.952 457.145 308.122 455.395 308.114 452.437C308.113 451.516 308.113 450.595 308.113 449.647C308.106 448.161 308.106 448.161 308.098 446.645C308.096 445.628 308.095 444.611 308.093 443.563C308.088 440.313 308.075 437.063 308.062 433.812C308.057 431.61 308.053 429.408 308.049 427.205C308.038 421.803 308.021 416.402 308 411Z" fill="#9CA7C6"/>
<path d="M284 411C286.41 412.694 287.827 414.086 288.385 417.038C288.53 419.658 288.554 422.252 288.531 424.875C288.535 425.836 288.539 426.798 288.543 427.789C288.546 429.819 288.538 431.85 288.521 433.881C288.5 436.989 288.521 440.095 288.547 443.203C288.544 445.177 288.539 447.151 288.531 449.125C288.539 450.054 288.547 450.984 288.556 451.941C288.463 458.335 288.463 458.335 286.193 461.594C283.035 463.618 280.664 463.407 277 463C276.34 462.34 275.68 461.68 275 461C277.64 460.67 280.28 460.34 283 460C283.952 457.145 284.122 455.395 284.114 452.437C284.113 451.516 284.113 450.595 284.113 449.647C284.106 448.161 284.106 448.161 284.098 446.645C284.096 445.628 284.095 444.611 284.093 443.563C284.088 440.313 284.075 437.063 284.062 433.812C284.057 431.61 284.053 429.408 284.049 427.205C284.038 421.803 284.021 416.402 284 411Z" fill="#9CA7C7"/>
<path d="M236 411C238.41 412.694 239.827 414.086 240.385 417.038C240.53 419.658 240.554 422.252 240.531 424.875C240.535 425.836 240.539 426.798 240.543 427.789C240.546 429.819 240.538 431.85 240.521 433.881C240.5 436.989 240.521 440.095 240.547 443.203C240.544 445.177 240.539 447.151 240.531 449.125C240.539 450.054 240.547 450.984 240.556 451.941C240.463 458.335 240.463 458.335 238.193 461.594C235.035 463.618 232.664 463.407 229 463C228.34 462.34 227.68 461.68 227 461C228.114 460.732 229.227 460.464 230.375 460.188C234.218 459.342 234.218 459.342 236 456C236.289 453.88 236.289 453.88 236.227 451.529C236.227 450.628 236.227 449.727 236.227 448.799C236.216 447.83 236.206 446.861 236.195 445.863C236.192 444.869 236.19 443.874 236.187 442.849C236.176 439.67 236.15 436.492 236.125 433.312C236.115 431.158 236.106 429.004 236.098 426.85C236.076 421.566 236.042 416.283 236 411Z" fill="#9DA7C7"/>
<path d="M211 411C214.875 412.75 214.875 412.75 216 415C216.109 416.362 216.159 417.729 216.177 419.095C216.19 419.94 216.203 420.784 216.216 421.654C216.227 423.026 216.227 423.026 216.238 424.426C216.246 425.366 216.254 426.305 216.263 427.273C216.277 429.265 216.287 431.256 216.295 433.248C216.312 436.29 216.356 439.331 216.4 442.373C216.411 444.307 216.419 446.242 216.426 448.176C216.443 449.084 216.461 449.993 216.479 450.929C216.465 455.092 216.335 457.426 214.2 461.087C212 463 212 463 208.375 463.438C205 463 205 463 203 461C204.114 460.732 205.227 460.464 206.375 460.188C210.218 459.342 210.218 459.342 212 456C212.295 454.024 212.295 454.024 212.243 451.852C212.246 451.021 212.249 450.19 212.252 449.333C212.245 448.44 212.238 447.546 212.23 446.625C212.23 445.704 212.23 444.783 212.229 443.834C212.226 441.888 212.218 439.941 212.206 437.994C212.188 435.012 212.185 432.029 212.186 429.047C212.181 427.156 212.175 425.266 212.168 423.375C212.167 422.481 212.166 421.587 212.165 420.667C212.155 419.42 212.155 419.42 212.145 418.148C212.141 417.418 212.138 416.688 212.134 415.935C212.066 413.781 212.066 413.781 211 411Z" fill="#9DA8C7"/>
<path d="M163 411C166.875 412.75 166.875 412.75 168 415C168.109 416.362 168.159 417.729 168.177 419.095C168.19 419.94 168.203 420.784 168.216 421.654C168.227 423.026 168.227 423.026 168.238 424.426C168.246 425.366 168.254 426.305 168.263 427.273C168.277 429.265 168.287 431.256 168.295 433.248C168.312 436.29 168.356 439.331 168.4 442.373C168.411 444.307 168.419 446.242 168.426 448.176C168.443 449.084 168.461 449.993 168.479 450.929C168.465 455.092 168.335 457.426 166.2 461.087C164 463 164 463 160.375 463.438C157 463 157 463 155 461C156.114 460.732 157.227 460.464 158.375 460.188C162.218 459.342 162.218 459.342 164 456C164.295 454.024 164.295 454.024 164.243 451.852C164.246 451.021 164.249 450.19 164.252 449.333C164.245 448.44 164.238 447.546 164.23 446.625C164.23 445.704 164.23 444.783 164.229 443.834C164.226 441.888 164.218 439.941 164.206 437.994C164.188 435.012 164.185 432.029 164.186 429.047C164.181 427.156 164.175 425.266 164.168 423.375C164.167 422.481 164.166 421.587 164.165 420.667C164.155 419.42 164.155 419.42 164.145 418.148C164.141 417.418 164.138 416.688 164.134 415.935C164.066 413.781 164.066 413.781 163 411Z" fill="#9AA5C5"/>
<path d="M188 411C190.374 412.688 191.82 414.071 192.385 416.992C192.53 419.543 192.554 422.067 192.531 424.621C192.535 425.558 192.539 426.495 192.543 427.46C192.546 429.44 192.538 431.419 192.521 433.399C192.5 436.424 192.521 439.446 192.547 442.471C192.544 444.396 192.539 446.321 192.531 448.246C192.539 449.148 192.547 450.051 192.556 450.98C192.494 455.115 192.322 457.451 190.193 461.082C188 463 188 463 184.375 463.438C181 463 181 463 179 461C180.114 460.732 181.227 460.464 182.375 460.188C186.218 459.342 186.218 459.342 188 456C188.289 453.88 188.289 453.88 188.227 451.529C188.227 450.628 188.227 449.727 188.227 448.799C188.216 447.83 188.206 446.861 188.195 445.863C188.192 444.869 188.19 443.874 188.187 442.849C188.176 439.67 188.15 436.492 188.125 433.312C188.115 431.158 188.106 429.004 188.098 426.85C188.076 421.566 188.042 416.283 188 411Z" fill="#9CA7C7"/>
<path d="M416.438 59.8125C417.642 59.7912 417.642 59.7912 418.871 59.7695C421 60 421 60 423 62C422.75 64.5625 422.75 64.5625 422 67C418.981 68.5093 416.327 68.1751 413 68C412.01 67.34 411.02 66.68 410 66C411.103 59.8552 411.103 59.8552 416.438 59.8125Z" fill="#3D4D63"/>
<path d="M98 54.8125C99.0519 54.7912 99.0519 54.7912 100.125 54.7695C102 55 102 55 104 57C103.444 61.5556 103.444 61.5556 102 63C100.004 63.168 100.004 63.168 97.5625 63.1875C96.3579 63.2088 96.3579 63.2088 95.1289 63.2305C93 63 93 63 91 61C91.25 58.4375 91.25 58.4375 92 56C94.2289 54.8855 95.5306 54.8352 98 54.8125Z" fill="#3E4E64"/>
<path d="M50 358C50.2269 358.557 50.4538 359.114 50.6875 359.688C52.956 363.684 55.619 366.54 60 368C70.0998 368.895 70.0998 368.895 79 365C80.3353 362.689 81.1333 360.552 82 358C82.33 358 82.66 358 83 358C82.7549 362.167 82.4067 364.477 79.8125 367.812C74.0561 372.29 68.0783 372.727 61 372C55.7454 370.215 53.0541 367.491 50 363C49.6875 360.125 49.6875 360.125 50 358Z" fill="#C1C7DA"/>
<path d="M432 367C432.459 367.349 432.918 367.699 433.391 368.059C434.004 368.514 434.618 368.969 435.25 369.438C435.853 369.89 436.457 370.342 437.078 370.809C442.057 373.895 448.35 373.714 454 373C457.25 371.664 460.113 369.996 463 368C461.182 372.15 458.904 373.69 455 376C449.376 377.875 444.025 377.795 438.625 375.25C435.684 373.598 433.622 372.041 432 369C432 368.34 432 367.68 432 367Z" fill="#B1B8CD"/>
<path d="M413 187C413.473 187.349 413.946 187.699 414.434 188.059C419.485 191.534 423.794 193.407 430 193C433.116 192.247 436.045 191.237 439 190C439 189.34 439 188.68 439 188C439.66 188.33 440.32 188.66 441 189C436.492 193.894 433.711 195.785 427.062 196.312C421.934 196.168 418.476 194.281 414.625 190.938C413 189 413 189 413 187Z" fill="#B7BED2"/>
<path d="M73 182C73.5337 182.433 74.0673 182.866 74.6172 183.312C79.5537 187.002 83.2624 188.904 89.4922 188.543C93.8243 187.605 97.3589 185.463 101 183C99.3068 186.784 97.7195 188.095 94 190C89.3633 191.546 84.6078 191.904 79.9258 190.281C75.8284 188.151 74.458 186.247 73 182Z" fill="#BDC3D7"/>
<path d="M93.1879 54.3125C93.786 54.5394 94.3842 54.7662 95.0004 55C94.0104 55.33 93.0204 55.66 92.0004 56C91.7501 58.4162 91.7501 58.4162 92.0004 61C94.9181 62.9451 96.6258 63.4527 100 64C100 64.66 100 65.32 100 66C98.5621 65.8854 97.1247 65.7579 95.6879 65.625C94.4872 65.5206 94.4872 65.5206 93.2621 65.414C91.0004 65 91.0004 65 88.0004 63C87.589 59.777 87.4637 57.8319 89.2504 55.0625C91.0004 54 91.0004 54 93.1879 54.3125Z" fill="#E9EEF4"/>
<path d="M63 352C64.6875 353.25 64.6875 353.25 66 355C65.6875 357.188 65.6875 357.188 65 359C62.03 358.505 62.03 358.505 59 358C59 359.32 59 360.64 59 362C58.01 361.67 57.02 361.34 56 361C56.4894 355.494 56.4894 355.494 58.9375 353.125C61 352 61 352 63 352Z" fill="#404E64"/>
<path d="M415 58.0002C419.604 57.679 422.389 58.0084 426 61.0002C426.938 63.5002 426.938 63.5002 427 66.0002C425 69.0002 425 69.0002 422.875 69.6877C422.256 69.7908 421.637 69.8939 421 70.0002C421.33 67.3602 421.66 64.7202 422 62.0002C419.69 61.0102 417.38 60.0202 415 59.0002C415 58.6702 415 58.3402 415 58.0002Z" fill="#E6EBF2"/>
<path d="M432 367C432.949 367.784 433.898 368.567 434.875 369.375C439.242 372.541 443.738 373.291 449 374C448.67 374.66 448.34 375.32 448 376C443.328 376.322 440.861 376.431 436.625 374.312C433.925 371.934 432.951 370.425 432 367Z" fill="#C5CADE"/>
<path d="M84.2617 170.609C85.4625 170.679 85.4625 170.679 86.6875 170.75C87.4957 170.786 88.304 170.822 89.1367 170.859C90.059 170.929 90.059 170.929 91 171C91 171.99 91 172.98 91 174C85.06 174.495 85.06 174.495 79 175C82 171 82 171 84.2617 170.609Z" fill="#D3D9E1"/>
<path d="M439 188C439.66 188.33 440.32 188.66 441 189C435.202 194.951 435.202 194.951 431.617 195.098C430.712 195.086 429.807 195.074 428.875 195.062C427.965 195.053 427.055 195.044 426.117 195.035C425.419 195.024 424.72 195.012 424 195C424 194.67 424 194.34 424 194C424.831 193.795 425.663 193.59 426.52 193.379C427.606 193.109 428.693 192.84 429.812 192.562C430.891 192.296 431.97 192.029 433.082 191.754C435.074 191.239 437.048 190.651 439 190C439 189.34 439 188.68 439 188Z" fill="#C2C8DB"/>
<path d="M84.6875 174.375C85.4506 174.581 86.2137 174.788 87 175C87 176.32 87 177.64 87 179C84.125 179.188 84.125 179.188 81 179C80.34 178.01 79.68 177.02 79 176C82 174 82 174 84.6875 174.375Z" fill="#6A788A"/>
<path d="M421 176C424.63 176 428.26 176 432 176C432 176.99 432 177.98 432 179C430.927 178.979 429.855 178.959 428.75 178.938C425.852 178.986 423.714 179.132 421 180C421 178.68 421 177.36 421 176Z" fill="#DAE0E7"/>
<path d="M445 354C447.97 354 450.94 354 454 354C453.01 354.495 453.01 354.495 452 355C452 355.66 452 356.32 452 357C449.36 357 446.72 357 444 357C444.33 356.01 444.66 355.02 445 354Z" fill="#D2D8E0"/>
<path d="M449 359C450.65 359 452.3 359 454 359C454 360.32 454 361.64 454 363C452.35 363 450.7 363 449 363C449 361.68 449 360.36 449 359Z" fill="#8895A3"/>
<path d="M60 355C61.98 355 63.96 355 66 355C65.67 356.32 65.34 357.64 65 359C63.35 358.67 61.7 358.34 60 358C60 357.01 60 356.02 60 355Z" fill="#8895A3"/>
<path d="M419 58.9998C419 59.3298 419 59.6598 419 59.9998C417.948 60.1236 416.896 60.2473 415.812 60.3748C412.54 60.9112 409.995 61.6386 407 62.9998C409.821 56.7532 412.838 58.1054 419 58.9998Z" fill="#CAD0D9"/>
<path d="M462 368C462 368.99 462 369.98 462 371C459.367 373.419 457.406 374.865 454 376C455.502 371.794 458.286 370.261 462 368Z" fill="#C5CADE"/>
</svg>
