<svg width="512" height="512" viewBox="0 0 512 512" fill="none" xmlns="http://www.w3.org/2000/svg">
<path d="M119.485 22.9998C120.386 22.9302 121.287 22.8606 122.216 22.7889C125.21 22.5632 128.205 22.3564 131.2 22.1517C132.255 22.0761 133.311 22.0005 134.398 21.9227C154.845 20.4641 175.312 19.5678 195.799 18.8975C199.179 18.7868 202.559 18.6722 205.939 18.555C206.947 18.5202 206.947 18.5202 207.976 18.4847C218.002 18.1288 227.979 17.4824 237.98 16.6683C293.241 12.2768 344.814 14.2013 388.705 51.1072C425.971 83.1456 444.606 119.034 448.325 168.031C450.71 202.839 449.022 237.801 447.069 272.585C446.324 286.019 445.839 299.445 445.521 312.895C445.498 313.852 445.475 314.809 445.452 315.794C445.361 319.644 445.273 323.494 445.186 327.344C444.512 357.403 443.581 387.447 442.074 417.477C441.963 419.73 441.859 421.983 441.756 424.237C441.565 428.369 441.345 432.499 441.121 436.63C441.041 438.412 441.041 438.412 440.959 440.23C440.074 455.107 434.815 467.111 423.938 477.406C413.592 485.917 402.955 488.46 389.793 488.388C388.004 488.396 388.004 488.396 386.179 488.404C382.896 488.416 379.613 488.414 376.329 488.407C372.777 488.402 369.226 488.414 365.674 488.425C358.727 488.442 351.779 488.443 344.831 488.438C339.181 488.433 333.532 488.435 327.882 488.44C327.076 488.441 326.27 488.442 325.44 488.443C323.804 488.444 322.167 488.446 320.53 488.447C305.197 488.461 289.863 488.455 274.53 488.444C260.519 488.434 246.508 488.447 232.498 488.471C218.092 488.495 203.686 488.505 189.28 488.498C181.2 488.495 173.12 488.497 165.041 488.514C158.162 488.529 151.284 488.53 144.406 488.512C140.9 488.504 137.395 488.502 133.89 488.517C130.08 488.53 126.271 488.519 122.461 488.501C121.367 488.511 120.273 488.52 119.145 488.53C105.14 488.397 94.4048 483.109 84.2503 473.687C73.3325 462.152 71.5475 449.415 71.6126 434.148C71.6084 432.548 71.6029 430.947 71.5963 429.347C71.5818 424.968 71.586 420.591 71.5934 416.212C71.5982 411.483 71.5856 406.753 71.5754 402.024C71.5582 392.766 71.5574 383.509 71.5626 374.251C71.5667 366.724 71.5652 359.198 71.5599 351.672C71.5591 350.6 71.5584 349.528 71.5576 348.423C71.5561 346.245 71.5545 344.067 71.553 341.889C71.5393 321.474 71.5447 301.059 71.5562 280.644C71.5661 261.977 71.5532 243.31 71.5292 224.644C71.5048 205.465 71.4952 186.286 71.5019 167.107C71.5054 156.344 71.5032 145.582 71.4856 134.819C71.4709 125.657 71.4703 116.495 71.4877 107.333C71.4962 102.661 71.4984 97.9893 71.4831 93.3174C71.4692 89.0351 71.474 84.7533 71.4933 80.4711C71.497 78.9274 71.4942 77.3838 71.4837 75.8401C71.3826 59.7904 75.3247 48.0931 86.3128 36.2499C95.6597 27.4037 106.878 23.8613 119.485 22.9998Z" fill="#CED1FB"/>
<path d="M72.0002 360C193.44 360 314.88 360 440 360C440 460.324 440 460.324 425.688 475.75C415.352 485.532 403.673 488.464 389.793 488.388C388.004 488.396 388.004 488.396 386.179 488.404C382.896 488.416 379.612 488.414 376.329 488.407C372.777 488.402 369.226 488.415 365.674 488.425C358.727 488.442 351.779 488.443 344.831 488.438C339.181 488.434 333.531 488.435 327.882 488.44C326.673 488.442 326.673 488.442 325.44 488.443C323.804 488.444 322.167 488.446 320.53 488.447C305.196 488.461 289.863 488.456 274.53 488.444C260.519 488.434 246.508 488.447 232.497 488.471C218.092 488.495 203.686 488.505 189.28 488.498C181.2 488.495 173.12 488.497 165.04 488.515C158.162 488.529 151.284 488.53 144.405 488.513C140.9 488.504 137.395 488.502 133.89 488.517C130.08 488.53 126.271 488.519 122.461 488.501C121.367 488.511 120.273 488.52 119.145 488.53C105.14 488.397 94.4048 483.109 84.2502 473.688C57.4387 445.358 72.0002 387.148 72.0002 360Z" fill="#5153FE"/>
<path d="M252.188 126.687C266.176 135.77 275.677 148.594 279.584 164.87C280.247 168.26 280.425 171.62 280.438 175.062C280.442 175.788 280.446 176.514 280.45 177.262C280.308 184.041 278.517 189.736 276.094 196.023C274.828 198.941 274.828 198.941 275 202C276.943 203.931 276.943 203.931 279.563 205.875C284.249 209.582 288.812 213.383 293.313 217.312C294.595 218.428 295.878 219.544 297.161 220.66C298.116 221.492 298.116 221.492 299.091 222.34C306.177 228.499 313.284 234.632 320.563 240.562C321.433 241.277 322.303 241.991 323.2 242.727C325.25 244.391 327.313 246.025 329.395 247.648C336.947 253.632 343.024 259.028 344.422 269.012C344.714 275.477 344.001 280.8 340 286C334.429 291.994 328.542 295.992 320.188 296.5C311.487 296.145 305.73 292.133 299.938 285.875C298.271 283.934 296.625 281.976 295 280C294.284 279.131 293.567 278.262 292.829 277.367C291.373 275.588 289.924 273.804 288.481 272.016C285.551 268.453 282.533 264.975 279.5 261.5C275.677 257.118 271.909 252.709 268.25 248.187C264.647 243.736 260.876 239.472 257.02 235.238C254.598 232.554 252.286 229.801 250 227C246.663 227.61 243.55 228.449 240.34 229.539C235.012 231.159 230.106 231.463 224.563 231.375C223.643 231.366 222.723 231.356 221.775 231.346C215.141 231.199 209.185 230.542 203 228C202.191 227.694 201.381 227.389 200.547 227.074C187.738 221.536 177.128 209.681 171.688 197C166.456 182.493 166.039 167.337 172 153C172.66 152.01 173.32 151.02 174 150C177.416 151.468 179.577 153.366 182.153 156.027C183.318 157.215 183.318 157.215 184.506 158.428C186.124 160.097 187.741 161.766 189.358 163.436C190.136 164.229 190.914 165.022 191.715 165.84C192.418 166.565 193.12 167.291 193.844 168.039C198.94 172.674 202.688 173.467 209.403 173.305C212.54 172.937 214.514 171.925 217 170C217.66 170 218.32 170 219 170C219.31 169.216 219.619 168.432 219.938 167.625C221 165 221 165 222 163C222.275 160.994 222.275 160.994 222.313 158.75C222.35 158.002 222.388 157.255 222.426 156.484C221.477 150.948 217.102 146.857 213.235 143.039C212.345 142.156 211.456 141.273 210.539 140.363C209.619 139.46 208.699 138.556 207.75 137.625C206.815 136.698 205.879 135.771 204.914 134.816C202.614 132.54 200.31 130.268 198 128C199 125 199 125 201.145 123.867C202.025 123.54 202.906 123.212 203.813 122.875C204.686 122.542 205.558 122.21 206.457 121.867C221.228 116.83 238.755 119.245 252.188 126.687Z" fill="#8690FA"/>
<path d="M344 24C349.615 28.6756 354.806 33.6636 359.964 38.8352C360.833 39.7025 361.702 40.5699 362.598 41.4635C364.961 43.8228 367.322 46.1844 369.681 48.5471C372.155 51.0239 374.632 53.4981 377.108 55.9728C381.258 60.121 385.406 64.2712 389.553 68.4226C394.351 73.2268 399.154 78.0274 403.958 82.8261C408.087 86.9509 412.215 91.0776 416.34 95.206C418.803 97.6701 421.266 100.134 423.731 102.595C426.471 105.331 429.206 108.071 431.941 110.812C432.762 111.631 433.583 112.45 434.429 113.294C435.168 114.036 435.907 114.777 436.668 115.541C437.639 116.513 437.639 116.513 438.629 117.504C440 119 440 119 440 120C432.368 120.076 424.737 120.129 417.105 120.165C414.513 120.18 411.92 120.2 409.328 120.226C405.587 120.263 401.846 120.28 398.105 120.293C396.959 120.308 395.813 120.324 394.632 120.34C379.527 120.343 368.262 115.688 357.293 105.383C350.95 98.7912 347.761 91.6375 345 83C344.505 81.515 344.505 81.515 344 80C343.911 78.1747 343.882 76.3463 343.886 74.5188C343.886 73.3979 343.886 72.2769 343.886 71.122C343.892 69.9126 343.897 68.7031 343.902 67.457C343.903 66.2183 343.905 64.9796 343.906 63.7033C343.911 60.4137 343.92 57.1241 343.931 53.8345C343.941 50.4763 343.946 47.118 343.951 43.7598C343.962 37.1732 343.979 30.5866 344 24Z" fill="#8690FA"/>
<path d="M259.375 386.188C269.864 392.22 275.456 400.651 279.312 412.012C282.521 425.958 278.996 438.945 272 451C267.837 457.53 261.23 461.54 254 464C243.736 465.379 237.09 462.426 228.75 456.813C221.48 449.377 216.57 439.401 216 429C215.935 427.933 215.871 426.865 215.804 425.766C215.412 413.782 218.635 403.565 226 394C235.311 384.978 247.011 380.276 259.375 386.188Z" fill="#FBFBFF"/>
<path d="M340.476 386.832C342 388 342 388 344 391C343.86 394.841 343.515 397.256 341.312 400.438C338.341 402.445 336.519 402.383 333 402C332.34 401.67 331.68 401.34 331 401C327.685 400.545 325.146 400.396 322.125 401.988C316.967 405.934 314.48 410.742 313 417C312.054 425.148 312.68 433.821 317.207 440.883C320.142 444.554 322.558 446.837 327.312 447.375C331.764 446.922 333.628 445.922 337 443C339.229 439.877 340.784 436.647 342 433C341.408 432.986 340.816 432.972 340.207 432.957C335.9 432.697 333.524 432.375 329.937 429.813C328 427 328 427 327.375 424C328.246 419.816 329.581 418.571 333 416C336.517 415.313 339.928 415.392 343.5 415.5C344.437 415.498 345.374 415.495 346.339 415.492C351.304 415.563 355.029 415.681 359 419C361.636 424.273 360.124 433.538 358.341 439.026C355.089 446.941 350.572 455.292 343 459.75C342.041 460.33 342.041 460.33 341.062 460.922C334.68 464.258 329.146 464.872 322 464C310.439 460.087 304.47 452.525 298.992 442.078C296.98 437.819 296.255 433.651 296 429C295.935 427.933 295.871 426.865 295.804 425.766C295.412 413.782 298.635 403.565 306 394C315.592 384.706 328.052 379.991 340.476 386.832Z" fill="#FBFBFF"/>
<path d="M160 383.375C163.067 384.014 164.801 384.794 166.959 387.083C169.427 391.629 168.59 397.374 168.488 402.395C168.481 403.697 168.474 405 168.466 406.341C168.447 409.793 168.398 413.243 168.343 416.693C168.292 420.219 168.269 423.745 168.244 427.271C168.19 434.181 168.105 441.091 168 448C168.761 447.984 169.522 447.969 170.307 447.952C173.767 447.89 177.227 447.851 180.687 447.812C181.885 447.787 183.083 447.762 184.318 447.736C185.475 447.727 186.632 447.717 187.824 447.707C188.887 447.691 189.95 447.676 191.045 447.659C194.424 448.049 196.28 448.992 199 451C200.404 453.809 200.249 455.888 200 459C198.22 462.136 197.477 462.841 194 464C191.242 464.121 188.511 464.188 185.754 464.203C184.946 464.209 184.138 464.215 183.306 464.22C181.599 464.23 179.892 464.236 178.185 464.24C175.575 464.25 172.966 464.281 170.357 464.312C168.698 464.319 167.038 464.324 165.379 464.328C164.599 464.34 163.82 464.353 163.017 464.366C159.777 464.352 157.416 464.225 154.538 462.667C151.468 459.341 151.853 455.708 151.807 451.405C151.799 450.739 151.79 450.074 151.782 449.388C151.757 447.189 151.741 444.989 151.726 442.789C151.721 442.037 151.716 441.285 151.71 440.51C151.683 436.529 151.664 432.549 151.65 428.568C151.636 425.276 151.608 421.984 151.567 418.692C151.518 414.714 151.493 410.737 151.486 406.758C151.48 405.244 151.464 403.73 151.44 402.215C151.409 400.094 151.409 397.975 151.416 395.854C151.408 394.648 151.4 393.443 151.392 392.201C152.341 387.203 155.018 384.413 160 383.375Z" fill="#FDFDFF"/>
<path d="M250.051 399.387C254.683 400.844 257.769 404.019 260.289 408.074C264.641 416.542 265.292 425.044 262.875 434.312C260.831 440.356 257.262 444.492 252 448C248.127 448.516 245.542 448.818 242.063 446.973C236.274 442.469 233.426 436.091 232 429C231.195 419.994 231.919 412.029 237.766 404.824C241.464 401.191 244.727 398.853 250.051 399.387Z" fill="#5355FF"/>
</svg>
