<svg width="512" height="512" viewBox="0 0 512 512" fill="none" xmlns="http://www.w3.org/2000/svg">
<g clip-path="url(#clip0_483_49)">
<path d="M36.5828 39.8661C38.5066 39.8597 38.5066 39.8597 40.4693 39.8532C41.8731 39.8535 43.2769 39.854 44.6807 39.8545C46.1729 39.8515 47.6651 39.8481 49.1573 39.8444C53.1966 39.8356 57.236 39.8332 61.2754 39.8325C63.8031 39.8318 66.3307 39.8297 68.8584 39.8271C77.688 39.8178 86.5176 39.8137 95.3472 39.8145C103.559 39.8151 111.771 39.8046 119.983 39.7888C127.049 39.7757 134.116 39.7703 141.182 39.771C145.395 39.7712 149.608 39.7684 153.822 39.7578C157.787 39.7481 161.752 39.7481 165.717 39.7553C167.166 39.7563 168.615 39.754 170.064 39.7479C182.39 39.6996 194.643 39.9803 204.231 48.6719C209.697 54.2852 212.727 61.5944 216.121 68.5584C216.872 70.0736 217.624 71.5881 218.378 73.1021C220.345 77.0629 222.295 81.0318 224.242 85.0027C226.236 89.0635 228.247 93.1162 230.256 97.1697C234.186 105.105 238.099 113.05 242 121C243.239 121.003 244.478 121.006 245.754 121.01C275.179 121.089 304.604 121.178 334.028 121.28C337.652 121.292 341.275 121.305 344.899 121.317C345.981 121.321 345.981 121.321 347.085 121.325C358.757 121.364 370.43 121.397 382.102 121.427C394.084 121.458 406.066 121.497 418.047 121.543C424.775 121.568 431.503 121.59 438.231 121.603C444.565 121.616 450.899 121.638 457.233 121.667C459.556 121.676 461.879 121.682 464.202 121.684C467.378 121.687 470.554 121.703 473.73 121.721C474.646 121.719 475.561 121.717 476.504 121.715C487.453 121.81 495.35 124.138 503.687 131.312C509.046 137.54 512.12 142.889 512.131 151.186C512.135 152.241 512.139 153.296 512.143 154.383C512.142 155.541 512.141 156.699 512.14 157.892C512.145 159.739 512.145 159.739 512.149 161.622C512.156 165.041 512.159 168.46 512.16 171.879C512.162 175.565 512.169 179.252 512.176 182.938C512.19 191 512.196 199.062 512.2 207.125C512.203 212.159 512.207 217.193 512.211 222.227C512.224 236.165 512.234 250.103 512.237 264.042C512.238 264.934 512.238 265.826 512.238 266.745C512.238 267.639 512.238 268.533 512.239 269.454C512.239 271.266 512.24 273.078 512.24 274.89C512.24 275.789 512.24 276.688 512.241 277.614C512.245 292.178 512.262 306.741 512.285 321.304C512.309 336.257 512.322 351.209 512.323 366.162C512.324 374.557 512.329 382.952 512.348 391.347C512.363 398.496 512.368 405.644 512.36 412.793C512.356 416.44 512.357 420.086 512.371 423.733C512.386 427.688 512.378 431.644 512.367 435.6C512.375 436.749 512.383 437.898 512.392 439.082C512.326 449.717 509.729 456.031 502.32 463.797C491.845 473.743 477.113 472.29 463.591 472.254C461.725 472.256 459.859 472.259 457.993 472.263C452.886 472.272 447.778 472.267 442.671 472.261C437.155 472.257 431.639 472.264 426.123 472.269C415.325 472.278 404.527 472.276 393.729 472.27C384.952 472.266 376.175 472.265 367.398 472.267C365.524 472.268 365.524 472.268 363.611 472.268C361.072 472.269 358.533 472.27 355.994 472.27C332.871 472.276 309.748 472.27 286.625 472.26C265.53 472.25 244.436 472.251 223.341 472.261C199.624 472.271 175.907 472.275 152.19 472.269C149.661 472.269 147.131 472.268 144.601 472.267C143.357 472.267 142.112 472.267 140.83 472.267C132.065 472.265 123.3 472.268 114.535 472.272C103.852 472.278 93.1684 472.276 82.4849 472.266C77.0355 472.261 71.5862 472.259 66.1367 472.265C61.1453 472.271 56.1541 472.268 51.1627 472.257C49.36 472.255 47.5573 472.256 45.7546 472.261C30.8436 472.298 18.7731 472.164 7.24982 461.812C-0.587415 453.295 -0.577942 443.266 -0.508116 432.286C-0.512731 430.701 -0.519088 429.116 -0.527026 427.53C-0.543666 423.194 -0.535497 418.858 -0.523081 414.521C-0.514012 409.837 -0.528009 405.152 -0.539 400.468C-0.556769 391.299 -0.552953 382.13 -0.54135 372.961C-0.53231 365.508 -0.531094 358.056 -0.535445 350.603C-0.536058 349.541 -0.536671 348.48 -0.537303 347.386C-0.538582 345.229 -0.539879 343.073 -0.541194 340.916C-0.552595 320.703 -0.539494 300.49 -0.517993 280.277C-0.500122 262.941 -0.503225 245.604 -0.521666 228.267C-0.543081 208.126 -0.551496 187.984 -0.539218 167.843C-0.537943 165.694 -0.536686 163.546 -0.535445 161.397C-0.534828 160.34 -0.534212 159.283 -0.533576 158.194C-0.530125 150.751 -0.535945 143.309 -0.545363 135.867C-0.556591 126.795 -0.553526 117.723 -0.532241 108.65C-0.521741 104.023 -0.517588 99.3965 -0.530837 94.7694C-0.54279 90.5304 -0.536149 86.2919 -0.514926 82.053C-0.510472 80.5228 -0.512698 78.9926 -0.522429 77.4625C-0.580087 67.6396 0.144584 59.3851 6.00763 51.1951C15.013 42.3892 24.0869 39.885 36.5828 39.8661Z" fill="#4194FF"/>
<path d="M36.583 39.8661C38.5068 39.8597 38.5068 39.8597 40.4694 39.8531C41.8733 39.8535 43.2771 39.854 44.6809 39.8545C46.1731 39.8515 47.6653 39.8481 49.1574 39.8443C53.1968 39.8355 57.2362 39.8332 61.2756 39.8325C63.8033 39.8318 66.3309 39.8297 68.8586 39.827C77.6882 39.8178 86.5178 39.8137 95.3474 39.8145C103.56 39.8151 111.772 39.8045 119.984 39.7887C127.05 39.7756 134.116 39.7703 141.182 39.7709C145.395 39.7712 149.608 39.7684 153.822 39.7578C157.787 39.748 161.752 39.748 165.718 39.7553C167.166 39.7563 168.615 39.754 170.064 39.7479C182.381 39.6996 194.654 39.9829 204.231 48.6763C209.683 54.275 212.725 61.5469 216.121 68.4881C216.872 69.9984 217.625 71.5082 218.378 73.0174C219.945 76.1644 221.504 79.3156 223.054 82.4707C225.045 86.5201 227.051 90.5613 229.064 94.5999C230.984 98.4558 232.897 102.316 234.809 106.176C235.174 106.913 235.54 107.65 235.917 108.409C236.946 110.484 237.969 112.563 238.99 114.642C239.573 115.824 240.156 117.007 240.756 118.225C242 121 242 121 242 123C162.14 123 82.28 123 0 123C0 59.5873 0 59.5873 6.00781 51.1951C15.0131 42.3891 24.0871 39.885 36.583 39.8661Z" fill="#376CFB"/>
</g>
<defs>
<clipPath id="clip0_483_49">
<rect width="512" height="512" fill="white"/>
</clipPath>
</defs>
</svg>
