<svg width="667" height="667" viewBox="0 0 667 667" fill="none" xmlns="http://www.w3.org/2000/svg">
<path d="M321.466 32.133C310.8 35.3329 301.733 43.733 296.533 55.5997L293.333 62.533L272.4 62.933L251.333 63.333L250.666 73.333L250 83.333L195.333 83.9996L140.666 84.6663L134.266 87.9996C126.4 91.9996 118.133 100.8 114.266 109.066L111.333 115.333V358.666C111.333 589.733 111.466 602.4 113.733 608.933C116.8 617.733 125.066 627.066 133.866 631.733L140.666 635.333H333.333H526L532.8 631.733C541.6 627.066 549.866 617.733 552.933 608.933C555.2 602.4 555.333 589.733 555.333 358.666V115.333L552.4 109.066C548.533 100.666 540 91.5997 532.266 87.733C526.133 84.6663 525.333 84.6663 471.333 83.9996L416.666 83.333L416 73.333L415.333 63.333L394.4 62.933L373.466 62.533L369.333 53.9996C364.533 43.9996 356 35.8663 347.066 32.7996C340.266 30.3997 328.533 30.133 321.466 32.133ZM346 42.2663C354.4 46.3997 362.666 57.1996 362.666 63.9996C362.666 65.4663 363.866 67.8663 365.333 69.333C367.733 71.733 369.733 71.9996 388 71.9996H408V105.333V138.666H333.333H258.666V105.333V71.9996H278.666C296.933 71.9996 298.933 71.733 301.333 69.333C302.8 67.8663 304 65.4663 304 63.9996C304 60.2663 307.466 53.4663 311.866 48.933C320.533 39.4663 334.666 36.7996 346 42.2663ZM249.333 104.666V117.333H198.8H148.133L146.133 120.266C144.266 122.933 144 147.866 144 360C144 572.133 144.266 597.066 146.133 599.733L148.133 602.666H333.333H518.533L520.533 599.733C522.4 597.066 522.666 572.133 522.666 360C522.666 147.866 522.4 122.933 520.533 120.266L518.533 117.333H467.866H417.333V104.533V91.8663L469.733 92.2663C520.4 92.6663 522.133 92.7996 527.333 95.5997C530.266 97.1996 534.533 100.4 536.933 102.933C546 112.266 545.333 91.9996 545.333 360C545.333 627.733 546.133 606.8 536.666 617.066C526.8 628.133 542.933 627.333 333.333 627.333C123.733 627.333 139.866 628.133 130 617.066C120.666 606.8 121.333 627.6 121.333 360C121.333 91.8663 120.666 112.4 129.733 102.933C134.4 97.9996 139.866 94.6663 146 93.1996C148.266 92.6663 172.4 92.2663 199.733 92.133L249.333 91.9996V104.666ZM249.6 135.333C249.333 140.933 249.733 144.8 250.666 146C252.133 147.733 264.133 148 334.133 148H416L416.8 144.8C417.2 142.933 417.333 138.133 417.066 134L416.666 126.666H465.066H513.333V360V593.333H333.333H153.333V360V126.666H201.733H250L249.6 135.333Z" fill="black"/>
<path d="M324.133 49.466C309.067 55.466 303.2 73.1994 311.867 86.9327C321.867 102.799 345.867 102.399 355.333 86.1327C365.067 69.466 352.933 47.866 334.133 48.1327C330.4 48.1327 325.867 48.7994 324.133 49.466ZM341.333 59.3327C348.667 63.066 351.467 73.3327 347.333 81.3327C344.4 86.9327 340.267 89.3327 333.333 89.3327C326.4 89.3327 322.267 86.9327 319.333 81.3327C311.733 66.666 326.8 51.7327 341.333 59.3327Z" fill="black"/>
<path d="M244.667 212.133L219.467 240.4L210.667 230.667C202.667 221.733 201.6 221.067 198.933 222.533C197.333 223.333 196 225.067 196 226.267C196 228.533 215.333 250.533 218.267 251.6C220.8 252.667 224.667 248.667 252.267 217.6C270.267 197.2 276.133 189.867 275.733 187.6C275.467 185.867 274.267 184.533 272.533 184.267C270.533 184 264 190.533 244.667 212.133Z" fill="black"/>
<path d="M299.199 215.2C298.799 216.267 298.666 218.267 298.933 219.6C299.333 221.867 303.466 222 383.866 222C461.333 222 468.533 221.867 469.733 219.733C470.799 218.133 470.666 216.933 469.466 215.467C467.866 213.6 458.666 213.333 383.733 213.333C311.999 213.333 299.866 213.6 299.199 215.2Z" fill="black"/>
<path d="M244.533 306.666L219.467 334.933L210.533 325.066C202.8 316.666 201.2 315.6 199.067 316.8C194.533 319.6 195.6 322.666 205.6 334C215.467 345.333 218.133 347.333 221.467 346C222.533 345.466 235.067 331.866 249.333 315.733C269.2 293.333 275.333 285.6 275.333 282.933C275.333 280.266 274.533 279.2 272.533 278.933C270.267 278.666 264.267 284.533 244.533 306.666Z" fill="black"/>
<path d="M299.6 308.933C297.467 311.066 298.8 316 301.733 316.666C303.333 317.066 341.467 317.2 386.533 317.066C461.2 316.666 468.533 316.533 469.733 314.4C470.8 312.8 470.667 311.6 469.467 310.133C467.867 308.266 458.667 308 384 308C338.133 308 300 308.4 299.6 308.933Z" fill="black"/>
<path d="M249.2 396.133C237.867 408.799 226.667 421.466 224.133 424.266L219.6 429.466L210.667 419.866C202.533 411.333 201.467 410.533 198.8 411.866C197.333 412.799 196 414.399 196 415.733C196 416.933 201.067 423.333 207.2 429.999C216.933 440.399 218.8 441.733 220.933 440.533C222.267 439.733 235.2 425.999 249.6 409.866C270.533 386.666 275.867 379.999 275.6 377.333C275.467 375.066 274.4 373.866 272.533 373.599C270.267 373.333 265.067 378.266 249.2 396.133Z" fill="black"/>
<path d="M299.199 404.533C298.799 405.6 298.666 407.6 298.933 408.933C299.333 411.2 303.466 411.333 383.866 411.333C461.333 411.333 468.533 411.2 469.733 409.066C470.799 407.466 470.666 406.266 469.466 404.8C467.866 402.933 458.666 402.666 383.733 402.666C311.999 402.666 299.866 402.933 299.199 404.533Z" fill="black"/>
<path d="M244.533 496.133L219.467 524.399L210.667 514.666C202.667 505.733 201.6 505.066 198.933 506.533C197.333 507.333 196 509.066 196 510.399C196 511.599 201.067 517.999 207.2 524.666C216.933 534.933 218.8 536.399 220.933 535.199C222.267 534.399 235.2 520.666 249.6 504.533C270.4 481.466 275.867 474.666 275.6 471.999C275.467 469.733 274.4 468.533 272.533 468.266C270.267 467.999 264.267 473.999 244.533 496.133Z" fill="black"/>
<path d="M298.8 499.2C297.6 500.667 297.466 501.867 298.666 503.867C300.133 506.667 300.533 506.667 383.866 506.667C473.866 506.667 472.133 506.8 470 500C469.2 497.333 468.666 497.333 384.8 497.333C313.066 497.333 300.133 497.6 298.8 499.2Z" fill="black"/>
</svg>
