<svg width="683" height="683" viewBox="0 0 683 683" fill="none" xmlns="http://www.w3.org/2000/svg">
<path d="M315.819 0.668274C266.352 5.33496 228.752 15.8683 187.685 36.535C157.419 51.7349 130.085 71.2016 104.219 96.2682C74.4852 124.935 53.4185 153.868 35.1518 191.068C12.7518 236.402 2.08516 279.068 0.218498 329.735C-1.7815 386.535 9.95183 440.668 35.2852 491.602C53.0185 527.468 71.4185 552.802 100.352 581.868C129.819 611.202 155.285 629.468 191.152 647.068C216.219 659.335 232.352 665.335 257.819 671.735C324.485 688.535 391.419 685.335 456.485 662.268C476.485 655.202 510.885 637.868 528.485 626.135C603.152 576.268 655.419 500.535 674.485 414.402C678.885 394.402 681.152 375.602 682.085 352.402C684.085 295.602 672.352 241.468 647.018 190.535C630.485 157.202 611.952 130.935 585.952 104.135C557.419 74.535 528.619 53.6016 491.152 35.0683C451.685 15.6016 414.885 5.0683 371.152 1.0683C357.552 -0.131714 326.752 -0.398376 315.819 0.668274ZM351.285 28.8016L356.752 29.7349L275.285 170.668C230.485 248.268 193.552 311.735 193.152 311.735C192.752 311.602 171.019 274.402 144.752 228.802L97.1518 146.002L100.618 141.468C107.419 132.535 127.419 112.402 139.819 102.135C182.885 66.1349 233.552 42.4016 286.485 33.2016C311.819 28.8016 339.552 26.9349 351.285 28.8016ZM417.952 38.4016C489.285 56.4016 552.352 99.4683 595.552 159.602C602.619 169.335 618.485 195.468 618.485 197.202C618.485 197.868 545.419 198.402 455.819 198.402C366.352 198.402 293.152 198.002 293.152 197.468C293.152 197.068 314.485 159.602 340.618 114.268L388.219 32.0016L393.019 32.6683C395.685 33.0683 406.885 35.7349 417.952 38.4016ZM161.152 313.735C203.819 387.735 239.552 449.735 240.619 451.468L242.485 454.402H145.952H49.4185L44.6185 439.868C22.6185 373.468 23.0185 305.068 45.8185 238.268C50.7518 224.002 67.1518 189.468 74.6185 177.868L78.7518 171.335L81.1518 175.202C82.4852 177.335 118.485 239.602 161.152 313.735ZM439.152 283.202C456.752 313.735 471.152 339.735 471.152 341.068C471.152 342.402 456.752 368.402 439.152 398.935L407.152 454.402H341.152H275.152L243.152 398.935C225.552 368.402 211.152 342.402 211.152 341.068C211.152 339.735 225.552 313.735 243.152 283.202L275.152 227.735H341.152H407.152L439.152 283.202ZM638.219 244.135C648.885 276.802 653.552 306.402 653.552 341.735C653.552 377.602 648.485 408.402 636.885 442.402C631.552 458.002 615.419 492.402 607.685 504.268L603.552 510.802L601.152 506.935C599.819 504.802 563.819 442.402 521.152 368.402C478.485 294.268 442.752 232.402 441.685 230.668L439.819 227.735H536.352H632.885L638.219 244.135ZM537.552 453.335L585.152 536.135L581.685 540.668C574.885 549.602 554.885 569.735 542.485 580.002C498.619 616.535 448.219 640.002 392.618 649.602C375.819 652.535 341.952 654.668 333.018 653.468L325.552 652.402L407.019 511.335C451.819 433.868 488.752 370.402 489.152 370.402C489.552 370.535 511.285 407.735 537.552 453.335ZM389.152 484.668C389.152 485.335 298.219 643.335 294.752 648.535C293.685 650.268 282.885 648.535 263.552 643.602C193.152 625.735 129.552 582.135 86.7518 522.535C79.6852 512.802 63.8185 486.668 63.8185 484.935C63.8185 484.268 136.885 483.735 226.485 483.735C315.952 483.735 389.152 484.135 389.152 484.668Z" fill="currentColor"/>
</svg>
